<svg width="82" height="94" viewBox="0 0 82 94" fill="none" xmlns="http://www.w3.org/2000/svg">
<path d="M34.358 78.8419C52.2288 78.8419 66.716 64.3547 66.716 46.4839C66.716 28.6131 52.2288 14.1259 34.358 14.1259C16.4872 14.1259 2 28.6131 2 46.4839C2 64.3547 16.4872 78.8419 34.358 78.8419Z" stroke="#1E293B" stroke-width="3" stroke-linecap="round" stroke-linejoin="round"/>
<path d="M66.7159 58.7459C74.0524 58.7459 79.9997 52.7985 79.9997 45.4621C79.9997 38.1256 74.0524 32.1783 66.7159 32.1783C59.3795 32.1783 53.4321 38.1256 53.4321 45.4621C53.4321 52.7985 59.3795 58.7459 66.7159 58.7459Z" fill="#BFE3F8" stroke="#1E293B" stroke-width="3" stroke-linecap="round" stroke-linejoin="round"/>
<path d="M17.3275 32.5189C24.664 32.5189 30.6113 26.5715 30.6113 19.2351C30.6113 11.8987 24.664 5.95129 17.3275 5.95129C9.99107 5.95129 4.0437 11.8987 4.0437 19.2351C4.0437 26.5715 9.99107 32.5189 17.3275 32.5189Z" fill="#F8BFBF" stroke="#1E293B" stroke-width="3" stroke-linecap="round" stroke-linejoin="round"/>
<path d="M19.0306 88.7196C26.3671 88.7196 32.3144 82.7722 32.3144 75.4358C32.3144 68.0993 26.3671 62.152 19.0306 62.152C11.6942 62.152 5.74683 68.0993 5.74683 75.4358C5.74683 82.7722 11.6942 88.7196 19.0306 88.7196Z" fill="#F8EAC7" stroke="#1E293B" stroke-width="3" stroke-linecap="round" stroke-linejoin="round"/>
</svg>
