<svg width="72" height="96" viewBox="0 0 72 96" fill="none" xmlns="http://www.w3.org/2000/svg">
<path d="M69.7271 44.4883V59.5956C69.7271 66.2543 54.6149 71.6532 35.9715 71.6532C17.3282 71.6532 2.21597 66.2543 2.21597 59.5956V44.4883C2.21597 46.7208 3.90862 48.8074 6.86588 50.5974C12.7366 54.1577 23.5734 56.5459 35.9715 56.5459C48.3697 56.5459 59.2065 54.1577 65.0772 50.5974C68.0296 48.8074 69.7271 46.7208 69.7271 44.4883Z" fill="#F8EAC7" stroke="#1E293B" stroke-width="3" stroke-linecap="round" stroke-linejoin="round"/>
<path d="M69.7271 29.3809V44.4882C69.7271 51.1469 54.6149 56.5459 35.9715 56.5459C17.3282 56.5459 2.21597 51.1469 2.21597 44.4882V29.3809C2.21597 31.6135 3.90862 33.7001 6.86588 35.49C12.7366 39.0504 23.5734 41.4386 35.9715 41.4386C48.3697 41.4386 59.2065 39.0504 65.0772 35.49C68.0296 33.7001 69.7271 31.6135 69.7271 29.3809Z" fill="#BFE3F8" stroke="#1E293B" stroke-width="3" stroke-linecap="round" stroke-linejoin="round"/>
<path d="M69.7271 14.2736C69.7271 16.5062 68.0345 18.5928 65.0772 20.3827C59.2065 23.9431 48.3697 26.3313 35.9715 26.3313C23.5734 26.3313 12.7366 23.9431 6.86588 20.3827C3.91348 18.5928 2.21597 16.5062 2.21597 14.2736C2.21597 7.61495 17.3282 2.216 35.9715 2.216C54.6149 2.216 69.7271 7.61495 69.7271 14.2736Z" fill="white" stroke="#1E293B" stroke-width="3" stroke-linecap="round" stroke-linejoin="round"/>
<path d="M69.7271 14.2736V29.3809C69.7271 36.0396 54.6149 41.4386 35.9715 41.4386C17.3282 41.4386 2.21597 36.0396 2.21597 29.3809V14.2736C2.21597 16.5062 3.90862 18.5928 6.86588 20.3827C12.7366 23.9431 23.5734 26.3313 35.9715 26.3313C48.3697 26.3313 59.2065 23.9431 65.0772 20.3827C68.0296 18.5928 69.7271 16.5062 69.7271 14.2736Z" fill="#DEC6FF" stroke="#1E293B" stroke-width="3" stroke-linecap="round" stroke-linejoin="round"/>
<path d="M2.21597 88.4337H69.7271M35.9715 88.4337V26.3264" stroke="#1E293B" stroke-width="3" stroke-linecap="round" stroke-linejoin="round"/>
<path d="M35.777 93.784C38.7319 93.784 41.1273 91.3886 41.1273 88.4337C41.1273 85.4788 38.7319 83.0834 35.777 83.0834C32.8221 83.0834 30.4267 85.4788 30.4267 88.4337C30.4267 91.3886 32.8221 93.784 35.777 93.784Z" fill="white" stroke="#1E293B" stroke-width="3" stroke-linecap="round" stroke-linejoin="round"/>
</svg>
