<svg width="85" height="96" viewBox="0 0 85 96" fill="none" xmlns="http://www.w3.org/2000/svg">
<path d="M34.895 61.2069C37.45 62.6808 39.99 64.0443 42.5 65.2926C23.575 74.6871 6.69498 77.3089 2.97998 70.8721C0.164984 65.9844 5.65498 57.1163 16.15 47.9975C21.315 52.4842 27.69 57.0361 34.895 61.2069Z" fill="#BFE3F8" stroke="#1E293B" stroke-width="3" stroke-linecap="round" stroke-linejoin="round"/>
<path d="M68.85 48.0025C63.685 43.5158 57.31 38.969 50.105 34.7981C47.55 33.3192 45.01 31.9507 42.5 30.7124C61.425 21.313 78.305 18.6861 82.02 25.1279C84.835 30.0156 79.345 38.8837 68.85 48.0025Z" fill="#BFE3F8" stroke="#1E293B" stroke-width="3" stroke-linecap="round" stroke-linejoin="round"/>
<path d="M68.85 48.0025C63.685 52.4892 57.31 57.0411 50.105 61.212C47.55 62.6858 45.01 64.0493 42.5 65.2976C39.995 64.0493 37.45 62.6858 34.895 61.212C27.69 57.0411 21.315 52.4892 16.15 48.0025C21.315 43.5158 27.69 38.969 34.895 34.7981C37.45 33.3193 39.99 31.9507 42.5 30.7125C45.01 31.9557 47.55 33.3193 50.105 34.7981C57.31 38.969 63.685 43.5108 68.85 48.0025Z" fill="#DEC6FF" stroke="#1E293B" stroke-width="3" stroke-linecap="round" stroke-linejoin="round"/>
<path d="M42.5 30.7074C39.995 31.9507 37.45 33.3142 34.895 34.7931C27.69 38.964 21.315 43.5058 16.15 47.9975C5.66001 38.8787 0.170011 30.0106 2.98001 25.1229C6.69001 18.6861 23.575 21.3079 42.5 30.7074Z" fill="#F8BFBF" stroke="#1E293B" stroke-width="3" stroke-linecap="round" stroke-linejoin="round"/>
<path d="M82.02 70.8771C78.31 77.3139 61.425 74.6921 42.5 65.2976C45.01 64.0493 47.55 62.6858 50.105 61.2119C57.31 57.0411 63.685 52.4892 68.85 48.0025C79.345 57.1263 84.835 65.9894 82.02 70.8771Z" fill="#F8BFBF" stroke="#1E293B" stroke-width="3" stroke-linecap="round" stroke-linejoin="round"/>
<path d="M42.5 93.7518C50.9002 93.7518 57.71 73.2691 57.71 48.0025C57.71 22.7359 50.9002 2.2533 42.5 2.2533C34.0997 2.2533 27.29 22.7359 27.29 48.0025C27.29 73.2691 34.0997 93.7518 42.5 93.7518Z" stroke="#1E293B" stroke-width="3" stroke-linecap="round" stroke-linejoin="round"/>
</svg>
