<svg width="556" height="422" viewBox="0 0 556 422" fill="none" xmlns="http://www.w3.org/2000/svg">
<g clip-path="url(#clip0_135_957)">
<path d="M479.454 1.41043H366.626V114.245H479.454V1.41043Z" fill="#F8C7C7" stroke="#1E293B" stroke-width="3" stroke-linecap="round" stroke-linejoin="round"/>
<path d="M479.454 39.0406H403.972V114.245H479.454V39.0406Z" fill="#F8EAC7"/>
<path d="M458.581 114.245H449.837M433.533 114.245H424.789" stroke="#1E293B" stroke-width="3" stroke-linecap="round" stroke-linejoin="round"/>
<path d="M403.972 93.4267V84.7385M403.972 70.2957V61.6075" stroke="#1E293B" stroke-width="3" stroke-linecap="round" stroke-linejoin="round"/>
<path d="M450.739 39.0406H459.483M427.61 39.0406H436.354" stroke="#1E293B" stroke-width="3" stroke-linecap="round" stroke-linejoin="round"/>
<path d="M474.941 39.0406H479.454" stroke="#1E293B" stroke-width="3" stroke-linecap="round" stroke-linejoin="round"/>
<path d="M479.454 93.4267V84.7385M479.454 68.4904V59.8021" stroke="#1E293B" stroke-width="3" stroke-linecap="round" stroke-linejoin="round"/>
<path d="M479.454 76.6144H441.713V114.245H479.454V76.6144Z" fill="#C7E6F8"/>
<path d="M463.602 114.245H457.565" stroke="#1E293B" stroke-width="3" stroke-linecap="round" stroke-linejoin="round"/>
<path d="M441.713 100.422V94.3858" stroke="#1E293B" stroke-width="3" stroke-linecap="round" stroke-linejoin="round"/>
<path d="M459.258 76.6144H465.294" stroke="#1E293B" stroke-width="3" stroke-linecap="round" stroke-linejoin="round"/>
<path d="M474.941 76.6144H479.454" stroke="#1E293B" stroke-width="3" stroke-linecap="round" stroke-linejoin="round"/>
<path d="M479.454 98.4479V92.4112" stroke="#1E293B" stroke-width="3" stroke-linecap="round" stroke-linejoin="round"/>
<path d="M479.454 1.41043H366.626V114.245H479.454V1.41043Z" stroke="#1E293B" stroke-width="3" stroke-linecap="round" stroke-linejoin="round"/>
<path d="M422.476 87.7286H95.2754V388.996H422.476V87.7286Z" fill="#1E293B" stroke="#1E293B" stroke-width="3" stroke-linecap="round" stroke-linejoin="round"/>
<path d="M414.578 79.8302H87.3774V381.098H414.578V79.8302Z" fill="#F7F3E9" stroke="#1E293B" stroke-width="3" stroke-linecap="round" stroke-linejoin="round"/>
<path d="M414.578 79.8302H87.3774V109.167H414.578V79.8302Z" fill="#F7F3E9" stroke="#1E293B" stroke-width="3" stroke-linecap="round" stroke-linejoin="round"/>
<path d="M397.09 98.4479C399.271 98.4479 401.039 96.6797 401.039 94.4987C401.039 92.3176 399.271 90.5495 397.09 90.5495C394.909 90.5495 393.141 92.3176 393.141 94.4987C393.141 96.6797 394.909 98.4479 397.09 98.4479Z" fill="#F8C7C7" stroke="#1E293B" stroke-width="3" stroke-linecap="round" stroke-linejoin="round"/>
<path d="M381.294 98.4479C383.475 98.4479 385.243 96.6797 385.243 94.4987C385.243 92.3176 383.475 90.5495 381.294 90.5495C379.113 90.5495 377.345 92.3176 377.345 94.4987C377.345 96.6797 379.113 98.4479 381.294 98.4479Z" fill="#F8EAC7" stroke="#1E293B" stroke-width="3" stroke-linecap="round" stroke-linejoin="round"/>
<path d="M365.498 98.4479C367.679 98.4479 369.447 96.6797 369.447 94.4987C369.447 92.3176 367.679 90.5495 365.498 90.5495C363.317 90.5495 361.549 92.3176 361.549 94.4987C361.549 96.6797 363.317 98.4479 365.498 98.4479Z" fill="#CBF2D1" stroke="#1E293B" stroke-width="3" stroke-linecap="round" stroke-linejoin="round"/>
<path d="M481.598 170.662C514.487 170.662 541.114 160.281 541.114 147.531C541.114 141.551 535.304 136.135 525.77 132.016C514.882 136.699 499.143 139.632 481.654 139.632H481.936C457.622 139.632 437.933 137.376 437.933 132.016C437.933 127.221 457.622 124.4 481.936 124.4H481.598C499.086 124.4 514.882 127.333 525.713 132.016C535.247 127.898 541.058 122.482 541.058 116.501C541.058 103.751 514.431 93.3703 481.541 93.3703" stroke="#1E293B" stroke-width="3" stroke-linecap="round" stroke-linejoin="round"/>
<path d="M481.598 93.3703H481.88" stroke="#1E293B" stroke-width="3" stroke-linecap="round" stroke-linejoin="round"/>
<path d="M490.342 180.478C490.342 175.175 486.054 170.887 480.752 170.887" stroke="#1E293B" stroke-width="3" stroke-linecap="round" stroke-linejoin="round"/>
<path d="M490.342 161.297C490.342 166.6 486.054 170.887 480.752 170.887" stroke="#1E293B" stroke-width="3" stroke-linecap="round" stroke-linejoin="round"/>
<path d="M141.873 129.59C142.437 129.59 142.945 129.759 143.509 130.154L144.412 128.857C144.017 128.575 143.622 128.349 143.227 128.18C142.776 128.01 142.325 127.954 141.817 127.954C141.083 127.954 140.406 128.123 139.842 128.462C139.278 128.8 138.827 129.252 138.545 129.816C138.263 130.38 138.094 131.057 138.094 131.847C138.094 132.637 138.263 133.257 138.545 133.821C138.827 134.386 139.278 134.837 139.842 135.175C140.406 135.514 141.083 135.627 141.817 135.627C142.325 135.627 142.832 135.514 143.284 135.345C143.735 135.175 144.13 134.95 144.468 134.668L143.509 133.314C143.227 133.539 142.945 133.652 142.719 133.765C142.494 133.878 142.212 133.934 141.93 133.934C141.422 133.934 141.027 133.765 140.745 133.426C140.463 133.088 140.35 132.58 140.35 131.847C140.237 130.324 140.801 129.59 141.873 129.59Z" fill="#1E293B"/>
<path d="M149.433 127.954C148.699 127.954 148.079 128.123 147.571 128.462C147.063 128.8 146.668 129.252 146.386 129.816C146.104 130.38 145.991 131.057 145.991 131.847C145.991 133.032 146.274 133.991 146.894 134.668C147.515 135.345 148.361 135.683 149.489 135.683C150.617 135.683 151.464 135.345 152.084 134.668C152.705 133.991 152.987 133.032 152.987 131.847C152.987 130.662 152.705 129.759 152.084 129.082C151.407 128.293 150.505 127.954 149.433 127.954ZM150.392 133.483C150.166 133.821 149.884 134.047 149.433 134.047C148.981 134.047 148.643 133.878 148.474 133.539C148.248 133.201 148.135 132.58 148.135 131.79C148.135 131.001 148.248 130.436 148.474 130.098C148.699 129.759 148.981 129.59 149.433 129.59C149.884 129.59 150.223 129.759 150.392 130.098C150.617 130.436 150.73 131.001 150.73 131.79C150.73 132.524 150.617 133.144 150.392 133.483Z" fill="#1E293B"/>
<path d="M159.305 127.954C158.854 127.954 158.459 128.067 158.12 128.236C157.782 128.405 157.443 128.687 157.105 129.026L156.936 128.18H155.074V135.345H157.218V130.324C157.443 130.041 157.669 129.872 157.838 129.703C158.064 129.59 158.233 129.477 158.459 129.477C158.741 129.477 158.91 129.59 159.023 129.759C159.136 129.929 159.192 130.267 159.192 130.718V135.401H161.336V130.098C161.336 129.421 161.167 128.913 160.828 128.518C160.433 128.123 159.926 127.954 159.305 127.954Z" fill="#1E293B"/>
<path d="M168.839 131.395C168.501 131.226 168.106 131.057 167.598 130.944C167.147 130.831 166.752 130.718 166.526 130.606C166.3 130.493 166.131 130.436 166.018 130.324C165.906 130.211 165.906 130.154 165.906 129.985C165.906 129.816 165.962 129.647 166.131 129.59C166.3 129.477 166.583 129.477 166.921 129.477C167.598 129.477 168.275 129.703 168.896 130.098L169.742 128.857C168.952 128.293 167.993 127.954 166.808 127.954C165.849 127.954 165.059 128.18 164.495 128.575C163.931 128.97 163.649 129.534 163.649 130.211C163.649 130.831 163.818 131.283 164.213 131.621C164.608 131.96 165.116 132.242 165.849 132.411C166.357 132.524 166.695 132.637 166.921 132.749C167.147 132.862 167.316 132.919 167.429 133.032C167.542 133.144 167.542 133.257 167.542 133.426C167.542 133.652 167.429 133.821 167.203 133.934C166.977 134.047 166.695 134.103 166.357 134.103C165.623 134.103 164.89 133.878 164.27 133.37L163.198 134.555C163.593 134.893 164.044 135.175 164.552 135.345C165.059 135.514 165.68 135.627 166.357 135.627C166.977 135.627 167.542 135.514 168.049 135.345C168.557 135.175 168.952 134.893 169.29 134.555C169.629 134.216 169.742 133.765 169.742 133.257C169.742 132.806 169.629 132.411 169.46 132.129C169.46 131.79 169.178 131.565 168.839 131.395Z" fill="#1E293B"/>
<path d="M173.409 132.919C173.409 133.765 173.634 134.442 174.086 134.893C174.537 135.345 175.27 135.57 176.173 135.57C177.075 135.57 177.865 135.345 178.542 134.893L177.865 133.539C177.47 133.765 177.076 133.878 176.624 133.878C176.286 133.878 176.004 133.821 175.834 133.652C175.665 133.483 175.609 133.257 175.609 132.919V129.647H177.696L177.922 128.18H175.609V126.374L173.465 126.656V128.236H171.942V129.703H173.465V132.919H173.409Z" fill="#1E293B"/>
<path d="M191.856 125.077L189.712 125.302V135.345H191.856V125.077Z" fill="#1E293B"/>
<path d="M196.708 135.345L194.169 131.339L196.538 128.18H194.282L191.912 131.452L194.282 135.345H196.708Z" fill="#1E293B"/>
<path d="M202.405 129.59C201.898 129.421 201.503 129.308 201.221 129.195C200.939 129.082 200.769 128.97 200.657 128.8C200.544 128.687 200.487 128.518 200.487 128.293C200.487 128.01 200.6 127.785 200.882 127.616C201.108 127.446 201.446 127.39 201.898 127.39C202.293 127.39 202.687 127.446 203.026 127.559C203.364 127.672 203.759 127.898 204.041 128.123L205.057 126.939C204.211 126.149 203.082 125.697 201.672 125.697C200.995 125.697 200.431 125.81 199.867 126.036C199.303 126.261 198.908 126.544 198.569 126.995C198.231 127.39 198.118 127.898 198.118 128.462C198.118 129.195 198.344 129.759 198.795 130.211C199.246 130.662 200.036 131.057 201.164 131.395C201.841 131.621 202.236 131.79 202.518 131.96C202.744 132.129 202.857 132.411 202.857 132.749C202.857 133.088 202.687 133.37 202.405 133.596C202.123 133.821 201.728 133.878 201.277 133.878C200.318 133.878 199.472 133.539 198.738 132.919L197.61 134.16C198.513 135.063 199.754 135.514 201.333 135.514C202.123 135.514 202.8 135.401 203.364 135.119C203.929 134.893 204.38 134.498 204.662 134.047C204.944 133.596 205.113 133.088 205.113 132.467C205.113 131.678 204.888 131.001 204.436 130.549C204.041 130.267 203.364 129.872 202.405 129.59Z" fill="#1E293B"/>
<path d="M212.165 128.349C211.657 128.067 211.037 127.898 210.36 127.898C209.626 127.898 209.006 128.067 208.498 128.405C207.99 128.744 207.595 129.195 207.313 129.759C207.031 130.324 206.918 131.001 206.918 131.734C206.918 132.467 207.088 133.144 207.37 133.709C207.652 134.273 208.103 134.724 208.611 135.063C209.175 135.401 209.852 135.57 210.642 135.57C211.206 135.57 211.77 135.457 212.278 135.288C212.786 135.119 213.18 134.893 213.519 134.555L212.673 133.37C212.052 133.765 211.432 133.991 210.811 133.991C209.796 133.991 209.231 133.426 209.062 132.355H213.745C213.745 132.129 213.801 131.903 213.801 131.565C213.801 130.775 213.688 130.154 213.406 129.59C213.011 129.082 212.673 128.687 212.165 128.349ZM209.006 131.113C209.062 130.549 209.175 130.098 209.401 129.816C209.626 129.534 209.965 129.364 210.36 129.364C211.206 129.364 211.601 129.929 211.657 131.113H209.006Z" fill="#1E293B"/>
<path d="M219.555 129.59C220.119 129.59 220.627 129.759 221.191 130.154L222.094 128.857C221.699 128.575 221.304 128.349 220.909 128.18C220.458 128.01 220.006 127.954 219.499 127.954C218.765 127.954 218.088 128.123 217.524 128.462C216.96 128.8 216.509 129.252 216.227 129.816C215.945 130.38 215.775 131.057 215.775 131.847C215.775 132.637 215.945 133.257 216.227 133.821C216.509 134.386 216.96 134.837 217.524 135.175C218.088 135.514 218.765 135.627 219.499 135.627C220.006 135.627 220.514 135.514 220.966 135.345C221.417 135.175 221.812 134.95 222.15 134.668L221.191 133.314C220.909 133.539 220.627 133.652 220.401 133.765C220.176 133.878 219.894 133.934 219.612 133.934C219.104 133.934 218.709 133.765 218.427 133.426C218.145 133.088 218.032 132.58 218.032 131.847C217.976 130.324 218.483 129.59 219.555 129.59Z" fill="#1E293B"/>
<path d="M228.751 133.934H227.34V131.903C227.51 131.339 227.735 130.888 228.074 130.549C228.356 130.211 228.751 129.985 229.146 129.872V131.226H230.499L230.894 128.236C230.556 128.067 230.161 128.01 229.71 128.01C229.146 128.01 228.638 128.18 228.243 128.462C227.848 128.744 227.51 129.195 227.227 129.816L226.833 128.18H224.238V129.59H225.197V133.934H224.238V135.345H228.751V133.934Z" fill="#1E293B"/>
<path d="M237.72 128.349C237.213 128.067 236.592 127.898 235.915 127.898C235.182 127.898 234.561 128.067 234.054 128.405C233.546 128.744 233.151 129.195 232.869 129.759C232.587 130.324 232.474 131.001 232.474 131.734C232.474 132.467 232.643 133.144 232.925 133.709C233.207 134.273 233.659 134.724 234.166 135.063C234.731 135.401 235.408 135.57 236.197 135.57C236.761 135.57 237.326 135.457 237.833 135.288C238.341 135.119 238.736 134.893 239.074 134.555L238.228 133.37C237.608 133.765 236.987 133.991 236.367 133.991C235.351 133.991 234.787 133.426 234.618 132.355H239.3C239.3 132.129 239.356 131.903 239.356 131.565C239.356 130.775 239.244 130.154 238.962 129.59C238.623 129.082 238.228 128.687 237.72 128.349ZM234.561 131.113C234.618 130.549 234.731 130.098 234.956 129.816C235.182 129.534 235.52 129.364 235.915 129.364C236.761 129.364 237.156 129.929 237.213 131.113H234.561Z" fill="#1E293B"/>
<path d="M242.572 132.919C242.572 133.765 242.798 134.442 243.249 134.893C243.7 135.345 244.434 135.57 245.336 135.57C246.239 135.57 247.029 135.345 247.706 134.893L247.029 133.539C246.634 133.765 246.239 133.878 245.788 133.878C245.449 133.878 245.167 133.821 244.998 133.652C244.829 133.483 244.772 133.257 244.772 132.919V129.647H246.859L247.085 128.18H244.772V126.374L242.628 126.656V128.236H241.105V129.703H242.628V132.919H242.572Z" fill="#1E293B"/>
<path d="M255.434 133.032C255.096 133.314 254.757 133.483 254.475 133.652C254.193 133.821 253.798 133.878 253.403 133.878C252.727 133.878 252.219 133.596 251.824 133.088C251.429 132.58 251.26 131.734 251.26 130.662C251.26 129.59 251.429 128.744 251.824 128.236C252.219 127.728 252.727 127.446 253.347 127.446C254.024 127.446 254.645 127.672 255.209 128.123L256.281 126.826C255.886 126.487 255.434 126.205 254.927 126.036C254.475 125.867 253.911 125.754 253.234 125.754C252.388 125.754 251.655 125.923 250.978 126.318C250.301 126.713 249.793 127.277 249.398 128.01C249.003 128.744 248.834 129.647 248.834 130.662C248.834 131.734 249.003 132.58 249.398 133.37C249.793 134.16 250.301 134.668 250.921 135.063C251.598 135.457 252.332 135.627 253.178 135.627C254.475 135.627 255.491 135.175 256.337 134.329L255.434 133.032Z" fill="#1E293B"/>
<path d="M261.132 127.954C260.399 127.954 259.778 128.123 259.271 128.462C258.763 128.8 258.368 129.252 258.086 129.816C257.804 130.38 257.691 131.057 257.691 131.847C257.691 133.032 257.973 133.991 258.594 134.668C259.214 135.345 260.06 135.683 261.189 135.683C262.317 135.683 263.163 135.345 263.784 134.668C264.404 133.991 264.686 133.032 264.686 131.847C264.686 130.662 264.404 129.759 263.784 129.082C263.05 128.293 262.204 127.954 261.132 127.954ZM262.091 133.483C261.866 133.821 261.583 134.047 261.132 134.047C260.681 134.047 260.342 133.878 260.173 133.539C259.947 133.201 259.835 132.58 259.835 131.79C259.835 131.001 259.947 130.436 260.173 130.098C260.399 129.759 260.681 129.59 261.132 129.59C261.583 129.59 261.922 129.759 262.091 130.098C262.317 130.436 262.43 131.001 262.43 131.79C262.373 132.524 262.26 133.144 262.091 133.483Z" fill="#1E293B"/>
<path d="M270.892 128.631C270.44 128.18 269.933 127.954 269.256 127.954C268.692 127.954 268.184 128.123 267.733 128.462C267.281 128.8 266.943 129.252 266.717 129.816C266.491 130.38 266.379 131.057 266.379 131.79C266.379 132.975 266.604 133.934 267.056 134.611C267.507 135.288 268.184 135.627 269.03 135.627C269.481 135.627 269.876 135.514 270.215 135.345C270.553 135.175 270.835 134.893 271.061 134.611L271.174 135.401H273.092V125.359L270.948 125.133V128.631H270.892ZM270.892 133.201C270.553 133.765 270.158 134.047 269.707 134.047C269.369 134.047 269.087 133.878 268.861 133.539C268.692 133.201 268.579 132.637 268.579 131.79C268.579 131.001 268.692 130.436 268.917 130.098C269.143 129.759 269.425 129.534 269.82 129.534C270.046 129.534 270.215 129.59 270.384 129.703C270.553 129.816 270.723 129.929 270.892 130.154V133.201Z" fill="#1E293B"/>
<path d="M280.482 128.349C279.974 128.067 279.354 127.898 278.677 127.898C277.944 127.898 277.323 128.067 276.815 128.405C276.308 128.744 275.913 129.195 275.631 129.759C275.349 130.324 275.236 131.001 275.236 131.734C275.236 132.467 275.405 133.144 275.687 133.709C275.969 134.273 276.42 134.724 276.928 135.063C277.492 135.401 278.169 135.57 278.959 135.57C279.523 135.57 280.087 135.457 280.595 135.288C281.103 135.119 281.498 134.893 281.836 134.555L280.99 133.37C280.369 133.765 279.749 133.991 279.128 133.991C278.113 133.991 277.549 133.426 277.379 132.355H282.062C282.062 132.129 282.118 131.903 282.118 131.565C282.118 130.775 282.005 130.154 281.723 129.59C281.385 129.082 280.99 128.687 280.482 128.349ZM277.323 131.113C277.379 130.549 277.492 130.098 277.718 129.816C277.944 129.534 278.282 129.364 278.677 129.364C279.523 129.364 279.918 129.929 279.974 131.113H277.323Z" fill="#1E293B"/>
<path d="M299.042 131.734H292.893V133.426H299.042V131.734Z" fill="#1E293B"/>
<path d="M299.042 128.913H292.893V130.606H299.042V128.913Z" fill="#1E293B"/>
<path d="M315.572 125.81V124.23H311.397V137.037H315.572V135.457H313.428V125.81H315.572Z" fill="#1E293B"/>
<path d="M158.064 149.449H159.587L159.813 145.613H157.782L158.064 149.449Z" fill="#1E293B"/>
<path d="M164.213 146.29L161.336 155.655H163.649L164.157 153.624H166.921L167.429 155.655H169.798L166.921 146.29H164.213ZM164.495 152.044L165.511 147.869L166.526 152.044H164.495Z" fill="#1E293B"/>
<path d="M175.834 154.244H174.424V152.213C174.593 151.649 174.819 151.198 175.157 150.859C175.44 150.521 175.834 150.295 176.229 150.182V151.536H177.583L177.978 148.546C177.64 148.377 177.245 148.321 176.793 148.321C176.229 148.321 175.722 148.49 175.327 148.772C174.932 149.054 174.593 149.505 174.311 150.126L173.916 148.49H171.321V149.9H172.28V154.244H171.321V155.655H175.834V154.244Z" fill="#1E293B"/>
<path d="M183.845 148.716C183.45 148.998 183.112 149.449 182.83 150.07L182.435 148.433H179.896V149.844H180.855V154.188H179.896V155.598H184.409V154.188H182.999V152.157C183.168 151.593 183.394 151.141 183.732 150.803C184.014 150.464 184.409 150.239 184.804 150.126V151.48H186.158L186.553 148.49C186.215 148.321 185.82 148.264 185.368 148.264C184.748 148.264 184.24 148.433 183.845 148.716Z" fill="#1E293B"/>
<path d="M191.574 148.264C190.841 148.264 190.22 148.433 189.712 148.772C189.204 149.11 188.81 149.562 188.528 150.126C188.245 150.69 188.133 151.367 188.133 152.157C188.133 153.342 188.415 154.301 189.035 154.978C189.656 155.655 190.502 155.993 191.63 155.993C192.759 155.993 193.605 155.655 194.225 154.978C194.846 154.301 195.128 153.342 195.128 152.157C195.128 150.972 194.846 150.07 194.225 149.393C193.492 148.603 192.646 148.264 191.574 148.264ZM192.533 153.793C192.307 154.132 192.025 154.357 191.574 154.357C191.123 154.357 190.784 154.188 190.615 153.849C190.389 153.511 190.276 152.89 190.276 152.101C190.276 151.311 190.389 150.747 190.615 150.408C190.84 150.07 191.123 149.9 191.574 149.9C192.025 149.9 192.364 150.07 192.533 150.408C192.759 150.747 192.871 151.311 192.871 152.101C192.815 152.834 192.759 153.455 192.533 153.793Z" fill="#1E293B"/>
<path d="M202.067 154.357L201.39 149.392H199.585L198.851 154.357L198.4 148.49H196.425L197.497 155.655H199.81L200.431 150.859L201.051 155.655H203.421L204.436 148.49H202.575L202.067 154.357Z" fill="#1E293B"/>
<path d="M209.401 155.88C210.134 155.88 210.811 155.711 211.319 155.429C211.826 155.147 212.221 154.752 212.503 154.244C212.785 153.737 212.898 153.172 212.898 152.495V146.233H210.642V151.649C210.642 152.27 210.585 152.721 210.529 153.116C210.473 153.455 210.36 153.737 210.134 153.962C209.965 154.132 209.683 154.244 209.344 154.244C209.006 154.244 208.724 154.132 208.554 153.962C208.385 153.793 208.272 153.511 208.16 153.116C208.103 152.778 208.047 152.27 208.047 151.649V146.233H205.79V152.495C205.79 153.511 206.072 154.357 206.693 154.978C207.37 155.598 208.272 155.88 209.401 155.88Z" fill="#1E293B"/>
<path d="M218.991 148.264C218.653 148.264 218.314 148.377 217.919 148.546C217.581 148.715 217.242 148.998 216.96 149.336L216.847 148.546H214.929V158.758L217.073 158.532V155.147C217.524 155.655 218.088 155.88 218.765 155.88C219.33 155.88 219.837 155.711 220.232 155.373C220.627 155.034 220.966 154.583 221.191 154.019C221.417 153.455 221.53 152.778 221.53 152.044C221.53 150.803 221.304 149.9 220.909 149.223C220.571 148.603 219.894 148.264 218.991 148.264ZM219.104 153.793C218.878 154.132 218.596 154.301 218.201 154.301C217.976 154.301 217.806 154.244 217.637 154.132C217.468 154.019 217.299 153.849 217.129 153.624V150.577C217.468 150.013 217.863 149.731 218.314 149.731C218.653 149.731 218.935 149.9 219.104 150.239C219.273 150.577 219.386 151.141 219.386 151.988C219.442 152.89 219.33 153.455 219.104 153.793Z" fill="#1E293B"/>
<path d="M224.35 145.613L224.632 149.449H226.099L226.381 145.613H224.35Z" fill="#1E293B"/>
<path d="M229.428 154.357C229.428 154.639 229.484 154.865 229.597 155.091C229.71 155.316 229.879 155.486 230.048 155.598L229.371 158.476H230.782L231.741 156.275C231.966 155.768 232.135 155.429 232.192 155.147C232.248 154.921 232.305 154.639 232.305 154.414C232.305 154.019 232.192 153.624 231.91 153.398C231.628 153.116 231.289 153.003 230.838 153.003C230.443 153.003 230.048 153.116 229.823 153.398C229.597 153.567 229.428 153.906 229.428 154.357Z" fill="#1E293B"/>
<path d="M158.064 169.759H159.587L159.813 165.923H157.782L158.064 169.759Z" fill="#1E293B"/>
<path d="M164.213 166.6L161.336 175.965H163.649L164.157 173.934H166.921L167.429 175.965H169.798L166.921 166.6H164.213ZM164.495 172.354L165.511 168.179L166.526 172.354H164.495Z" fill="#1E293B"/>
<path d="M175.834 174.555H174.424V172.524C174.593 171.959 174.819 171.508 175.157 171.17C175.44 170.831 175.834 170.605 176.229 170.493V171.847H177.583L177.978 168.856C177.64 168.687 177.245 168.631 176.793 168.631C176.229 168.631 175.722 168.8 175.327 169.082C174.932 169.364 174.593 169.816 174.311 170.436L173.916 168.8H171.321V170.21H172.28V174.555H171.321V175.965H175.834V174.555Z" fill="#1E293B"/>
<path d="M183.845 169.026C183.45 169.308 183.112 169.759 182.83 170.38L182.435 168.744H179.896V170.154H180.855V174.498H179.896V175.909H184.409V174.498H182.999V172.467C183.168 171.903 183.394 171.452 183.732 171.113C184.014 170.775 184.409 170.549 184.804 170.436V171.79H186.158L186.553 168.8C186.215 168.631 185.82 168.574 185.368 168.574C184.748 168.574 184.24 168.744 183.845 169.026Z" fill="#1E293B"/>
<path d="M191.574 168.574C190.841 168.574 190.22 168.744 189.712 169.082C189.204 169.421 188.81 169.872 188.528 170.436C188.245 171 188.133 171.677 188.133 172.467C188.133 173.652 188.415 174.611 189.035 175.288C189.656 175.965 190.502 176.303 191.63 176.303C192.759 176.303 193.605 175.965 194.225 175.288C194.846 174.611 195.128 173.652 195.128 172.467C195.128 171.282 194.846 170.38 194.225 169.703C193.492 168.913 192.646 168.574 191.574 168.574ZM192.533 174.103C192.307 174.442 192.025 174.667 191.574 174.667C191.123 174.667 190.784 174.498 190.615 174.16C190.389 173.821 190.276 173.201 190.276 172.411C190.276 171.621 190.389 171.057 190.615 170.718C190.84 170.38 191.123 170.21 191.574 170.21C192.025 170.21 192.364 170.38 192.533 170.718C192.759 171.057 192.871 171.621 192.871 172.411C192.815 173.144 192.759 173.765 192.533 174.103Z" fill="#1E293B"/>
<path d="M202.067 174.667L201.39 169.703H199.585L198.851 174.667L198.4 168.8H196.425L197.497 175.965H199.81L200.431 171.169L201.051 175.965H203.421L204.436 168.8H202.575L202.067 174.667Z" fill="#1E293B"/>
<path d="M209.401 176.191C210.134 176.191 210.811 176.021 211.319 175.739C211.826 175.457 212.221 175.062 212.503 174.555C212.785 174.047 212.898 173.483 212.898 172.806V166.543H210.642V171.959C210.642 172.58 210.585 173.031 210.529 173.426C210.473 173.765 210.36 174.047 210.134 174.272C209.965 174.442 209.683 174.555 209.344 174.555C209.006 174.555 208.724 174.442 208.554 174.272C208.385 174.103 208.272 173.821 208.16 173.426C208.103 173.088 208.047 172.58 208.047 171.959V166.543H205.79V172.806C205.79 173.821 206.072 174.667 206.693 175.288C207.37 175.909 208.272 176.191 209.401 176.191Z" fill="#1E293B"/>
<path d="M218.991 168.574C218.653 168.574 218.314 168.687 217.919 168.856C217.581 169.026 217.242 169.308 216.96 169.646L216.847 168.856H214.929V179.068L217.073 178.842V175.457C217.524 175.965 218.088 176.191 218.765 176.191C219.33 176.191 219.837 176.021 220.232 175.683C220.627 175.344 220.966 174.893 221.191 174.329C221.417 173.765 221.53 173.088 221.53 172.354C221.53 171.113 221.304 170.21 220.909 169.533C220.571 168.913 219.894 168.574 218.991 168.574ZM219.104 174.103C218.878 174.442 218.596 174.611 218.201 174.611C217.976 174.611 217.806 174.555 217.637 174.442C217.468 174.329 217.299 174.16 217.129 173.934V170.887C217.468 170.323 217.863 170.041 218.314 170.041C218.653 170.041 218.935 170.21 219.104 170.549C219.273 170.887 219.386 171.452 219.386 172.298C219.442 173.201 219.33 173.765 219.104 174.103Z" fill="#1E293B"/>
<path d="M224.632 169.759H226.099L226.381 165.923H224.35L224.632 169.759Z" fill="#1E293B"/>
<path d="M230.838 178.729L231.797 176.529C232.023 176.021 232.192 175.683 232.248 175.401C232.305 175.175 232.361 174.893 232.361 174.667C232.361 174.272 232.248 173.878 231.966 173.652C231.684 173.37 231.346 173.257 230.894 173.257C230.499 173.257 230.105 173.37 229.879 173.652C229.597 173.934 229.484 174.272 229.484 174.667C229.484 174.949 229.54 175.175 229.653 175.401C229.766 175.626 229.935 175.796 230.105 175.909L229.428 178.786H230.838V178.729Z" fill="#1E293B"/>
<path d="M158.064 190.069H159.587L159.813 186.233H157.782L158.064 190.069Z" fill="#1E293B"/>
<path d="M164.213 186.91L161.336 196.275H163.649L164.157 194.244H166.921L167.429 196.275H169.798L166.921 186.91H164.213ZM164.495 192.664L165.511 188.49L166.526 192.664H164.495Z" fill="#1E293B"/>
<path d="M175.834 194.865H174.424V192.834C174.593 192.269 174.819 191.818 175.157 191.48C175.44 191.141 175.834 190.915 176.229 190.803V192.157H177.583L177.978 189.167C177.64 188.997 177.245 188.941 176.793 188.941C176.229 188.941 175.722 189.11 175.327 189.392C174.932 189.674 174.593 190.126 174.311 190.746L173.916 189.11H171.321V190.521H172.28V194.865H171.321V196.275H175.834V194.865Z" fill="#1E293B"/>
<path d="M183.845 189.336C183.45 189.618 183.112 190.069 182.83 190.69L182.435 189.054H179.896V190.464H180.855V194.808H179.896V196.219H184.409V194.808H182.999V192.777C183.168 192.213 183.394 191.762 183.732 191.423C184.014 191.085 184.409 190.859 184.804 190.746V192.1H186.158L186.553 189.11C186.215 188.941 185.82 188.884 185.368 188.884C184.748 188.884 184.24 189.054 183.845 189.336Z" fill="#1E293B"/>
<path d="M191.574 188.884C190.841 188.884 190.22 189.054 189.712 189.392C189.204 189.731 188.81 190.182 188.528 190.746C188.245 191.31 188.133 191.987 188.133 192.777C188.133 193.962 188.415 194.921 189.035 195.598C189.656 196.275 190.502 196.614 191.63 196.614C192.759 196.614 193.605 196.275 194.225 195.598C194.846 194.921 195.128 193.962 195.128 192.777C195.128 191.592 194.846 190.69 194.225 190.013C193.492 189.223 192.646 188.884 191.574 188.884ZM192.533 194.413C192.307 194.752 192.025 194.978 191.574 194.978C191.123 194.978 190.784 194.808 190.615 194.47C190.389 194.131 190.276 193.511 190.276 192.721C190.276 191.931 190.389 191.367 190.615 191.028C190.84 190.69 191.123 190.521 191.574 190.521C192.025 190.521 192.364 190.69 192.533 191.028C192.759 191.367 192.871 191.931 192.871 192.721C192.815 193.454 192.759 194.075 192.533 194.413Z" fill="#1E293B"/>
<path d="M202.067 194.978L201.39 190.013H199.585L198.851 194.978L198.4 189.11H196.425L197.497 196.275H199.81L200.431 191.48L201.051 196.275H203.421L204.436 189.11H202.575L202.067 194.978Z" fill="#1E293B"/>
<path d="M211.826 187.925C210.98 187.248 209.852 186.91 208.442 186.91H206.072V196.275H208.611C211.657 196.275 213.124 194.695 213.124 191.536C213.068 189.787 212.673 188.546 211.826 187.925ZM210.247 193.962C209.908 194.413 209.401 194.639 208.724 194.639H208.272V188.49H208.724C209.401 188.49 209.908 188.715 210.247 189.11C210.585 189.561 210.811 190.351 210.811 191.48C210.811 192.721 210.642 193.511 210.247 193.962Z" fill="#1E293B"/>
<path d="M218.145 188.884C217.411 188.884 216.791 189.054 216.283 189.392C215.775 189.731 215.381 190.182 215.099 190.746C214.816 191.31 214.704 191.987 214.704 192.777C214.704 193.962 214.986 194.921 215.606 195.598C216.227 196.275 217.073 196.614 218.201 196.614C219.33 196.614 220.176 196.275 220.796 195.598C221.417 194.921 221.699 193.962 221.699 192.777C221.699 191.592 221.417 190.69 220.796 190.013C220.063 189.223 219.217 188.884 218.145 188.884ZM219.104 194.413C218.878 194.752 218.596 194.978 218.145 194.978C217.694 194.978 217.355 194.808 217.186 194.47C216.96 194.131 216.847 193.511 216.847 192.721C216.847 191.931 216.96 191.367 217.186 191.028C217.411 190.69 217.694 190.521 218.145 190.521C218.596 190.521 218.935 190.69 219.104 191.028C219.273 191.367 219.442 191.931 219.442 192.721C219.386 193.454 219.33 194.075 219.104 194.413Z" fill="#1E293B"/>
<path d="M228.638 194.978L227.961 190.013H226.156L225.422 194.978L224.971 189.11H222.996L224.068 196.275H226.381L227.002 191.48L227.622 196.275H229.992L231.007 189.11H229.146L228.638 194.978Z" fill="#1E293B"/>
<path d="M237.1 188.884C236.649 188.884 236.254 188.997 235.915 189.167C235.577 189.336 235.238 189.618 234.9 189.956L234.731 189.11H232.869V196.275H235.013V191.254C235.238 190.972 235.464 190.803 235.633 190.633C235.859 190.521 236.028 190.408 236.254 190.408C236.536 190.408 236.705 190.521 236.818 190.69C236.931 190.859 236.987 191.198 236.987 191.649V196.332H239.131V191.028C239.131 190.351 238.962 189.844 238.623 189.449C238.172 189.054 237.72 188.884 237.1 188.884Z" fill="#1E293B"/>
<path d="M242.121 186.233L242.403 190.069H243.926L244.152 186.233H242.121Z" fill="#1E293B"/>
<path d="M248.608 199.04L249.567 196.839C249.793 196.332 249.962 195.993 250.019 195.711C250.075 195.485 250.132 195.203 250.132 194.978C250.132 194.583 250.019 194.188 249.737 193.962C249.455 193.68 249.116 193.567 248.665 193.567C248.27 193.567 247.875 193.68 247.649 193.962C247.367 194.244 247.254 194.583 247.254 194.978C247.254 195.26 247.311 195.485 247.424 195.711C247.536 195.937 247.706 196.106 247.875 196.219L247.198 199.096H248.608V199.04Z" fill="#1E293B"/>
<path d="M158.064 210.379H159.587L159.813 206.543H157.782L158.064 210.379Z" fill="#1E293B"/>
<path d="M164.213 207.22L161.336 216.585H163.649L164.157 214.554H166.921L167.429 216.585H169.798L166.921 207.22H164.213ZM164.495 212.975L165.511 208.8L166.526 212.975H164.495Z" fill="#1E293B"/>
<path d="M175.834 215.175H174.424V213.144C174.593 212.58 174.819 212.128 175.157 211.79C175.44 211.451 175.834 211.226 176.229 211.113V212.467H177.583L177.978 209.477C177.64 209.307 177.245 209.251 176.793 209.251C176.229 209.251 175.722 209.42 175.327 209.702C174.932 209.985 174.593 210.436 174.311 211.056L173.916 209.42H171.321V210.831H172.28V215.175H171.321V216.585H175.834V215.175Z" fill="#1E293B"/>
<path d="M183.845 209.646C183.45 209.928 183.112 210.379 182.83 211L182.435 209.364H179.896V210.774H180.855V215.118H179.896V216.529H184.409V215.118H182.999V213.087C183.168 212.523 183.394 212.072 183.732 211.733C184.014 211.395 184.409 211.169 184.804 211.056V212.41H186.158L186.553 209.42C186.215 209.251 185.82 209.195 185.368 209.195C184.748 209.195 184.24 209.364 183.845 209.646Z" fill="#1E293B"/>
<path d="M191.574 209.195C190.841 209.195 190.22 209.364 189.712 209.702C189.204 210.041 188.81 210.492 188.528 211.056C188.245 211.621 188.133 212.298 188.133 213.087C188.133 214.272 188.415 215.231 189.035 215.908C189.656 216.585 190.502 216.924 191.63 216.924C192.759 216.924 193.605 216.585 194.225 215.908C194.846 215.231 195.128 214.272 195.128 213.087C195.128 211.903 194.846 211 194.225 210.323C193.492 209.533 192.646 209.195 191.574 209.195ZM192.533 214.724C192.307 215.062 192.025 215.288 191.574 215.288C191.123 215.288 190.784 215.118 190.615 214.78C190.389 214.441 190.276 213.821 190.276 213.031C190.276 212.241 190.389 211.677 190.615 211.339C190.84 211 191.123 210.831 191.574 210.831C192.025 210.831 192.364 211 192.533 211.339C192.759 211.677 192.871 212.241 192.871 213.031C192.815 213.764 192.759 214.385 192.533 214.724Z" fill="#1E293B"/>
<path d="M202.067 215.288L201.39 210.323H199.585L198.851 215.288L198.4 209.42H196.425L197.497 216.585H199.81L200.431 211.79L201.051 216.585H203.421L204.436 209.42H202.575L202.067 215.288Z" fill="#1E293B"/>
<path d="M213.068 211.846C213.068 210.097 212.616 208.856 211.77 208.179C210.924 207.502 209.796 207.164 208.385 207.164H206.016V216.529H208.554C211.601 216.585 213.068 215.006 213.068 211.846ZM208.216 208.856H208.667C209.344 208.856 209.852 209.082 210.19 209.477C210.529 209.928 210.755 210.718 210.755 211.846C210.755 212.975 210.585 213.821 210.247 214.272C209.908 214.724 209.401 214.949 208.724 214.949H208.272V208.856H208.216Z" fill="#1E293B"/>
<path d="M218.145 209.195C217.411 209.195 216.791 209.364 216.283 209.702C215.775 210.041 215.381 210.492 215.099 211.056C214.816 211.621 214.704 212.298 214.704 213.087C214.704 214.272 214.986 215.231 215.606 215.908C216.227 216.585 217.073 216.924 218.201 216.924C219.33 216.924 220.176 216.585 220.796 215.908C221.417 215.231 221.699 214.272 221.699 213.087C221.699 211.903 221.417 211 220.796 210.323C220.063 209.533 219.217 209.195 218.145 209.195ZM219.104 214.724C218.878 215.062 218.596 215.288 218.145 215.288C217.694 215.288 217.355 215.118 217.186 214.78C216.96 214.441 216.847 213.821 216.847 213.031C216.847 212.241 216.96 211.677 217.186 211.339C217.411 211 217.694 210.831 218.145 210.831C218.596 210.831 218.935 211 219.104 211.339C219.33 211.677 219.442 212.241 219.442 213.031C219.386 213.764 219.33 214.385 219.104 214.724Z" fill="#1E293B"/>
<path d="M228.638 215.288L227.961 210.323H226.156L225.422 215.288L224.971 209.42H222.996L224.068 216.585H226.381L227.002 211.79L227.622 216.585H229.992L231.007 209.42H229.146L228.638 215.288Z" fill="#1E293B"/>
<path d="M237.1 209.195C236.649 209.195 236.254 209.307 235.915 209.477C235.577 209.646 235.238 209.928 234.9 210.267L234.731 209.42H232.869V216.585H235.013V211.564C235.238 211.282 235.464 211.113 235.633 210.944C235.859 210.831 236.028 210.718 236.254 210.718C236.536 210.718 236.705 210.831 236.818 211C236.931 211.169 236.987 211.508 236.987 211.959V216.642H239.131V211.339C239.131 210.661 238.962 210.154 238.623 209.759C238.172 209.364 237.72 209.195 237.1 209.195Z" fill="#1E293B"/>
<path d="M242.403 210.379H243.926L244.152 206.543H242.121L242.403 210.379Z" fill="#1E293B"/>
<path d="M250.075 216.021C250.132 215.795 250.188 215.513 250.188 215.288C250.188 214.893 250.075 214.498 249.793 214.272C249.511 214.046 249.172 213.877 248.721 213.877C248.326 213.877 247.931 213.99 247.706 214.272C247.424 214.554 247.311 214.893 247.311 215.288C247.311 215.57 247.367 215.795 247.48 216.021C247.593 216.247 247.762 216.416 247.931 216.529L247.254 219.406H248.665L249.624 217.206C249.793 216.642 249.962 216.303 250.075 216.021Z" fill="#1E293B"/>
<path d="M158.064 230.69H159.587L159.813 226.853H157.782L158.064 230.69Z" fill="#1E293B"/>
<path d="M164.213 227.53L161.336 236.895H163.649L164.157 234.864H166.921L167.429 236.895H169.798L166.921 227.53H164.213ZM164.495 233.285L165.511 229.11L166.526 233.285H164.495Z" fill="#1E293B"/>
<path d="M175.834 235.485H174.424V233.454C174.593 232.89 174.819 232.438 175.157 232.1C175.44 231.761 175.834 231.536 176.229 231.423V232.777H177.583L177.978 229.787C177.64 229.618 177.245 229.561 176.793 229.561C176.229 229.561 175.722 229.73 175.327 230.013C174.932 230.295 174.593 230.746 174.311 231.367L173.916 229.73H171.321V231.141H172.28V235.485H171.321V236.895H175.834V235.485Z" fill="#1E293B"/>
<path d="M183.845 229.956C183.45 230.238 183.112 230.69 182.83 231.31L182.435 229.674H179.896V231.084H180.855V235.429H179.896V236.839H184.409V235.429H182.999V233.398C183.168 232.833 183.394 232.382 183.732 232.044C184.014 231.705 184.409 231.479 184.804 231.367V232.721H186.158L186.553 229.73C186.215 229.561 185.82 229.505 185.368 229.505C184.748 229.505 184.24 229.674 183.845 229.956Z" fill="#1E293B"/>
<path d="M191.574 229.505C190.841 229.505 190.22 229.674 189.712 230.013C189.204 230.351 188.81 230.802 188.528 231.367C188.245 231.931 188.133 232.608 188.133 233.398C188.133 234.582 188.415 235.541 189.035 236.218C189.656 236.895 190.502 237.234 191.63 237.234C192.759 237.234 193.605 236.895 194.225 236.218C194.846 235.541 195.128 234.582 195.128 233.398C195.128 232.213 194.846 231.31 194.225 230.633C193.492 229.843 192.646 229.505 191.574 229.505ZM192.533 235.034C192.307 235.372 192.025 235.598 191.574 235.598C191.123 235.598 190.784 235.429 190.615 235.09C190.389 234.752 190.276 234.131 190.276 233.341C190.276 232.551 190.389 231.987 190.615 231.649C190.84 231.31 191.123 231.141 191.574 231.141C192.025 231.141 192.364 231.31 192.533 231.649C192.759 231.987 192.871 232.551 192.871 233.341C192.815 234.075 192.759 234.695 192.533 235.034Z" fill="#1E293B"/>
<path d="M202.067 235.598L201.39 230.633H199.585L198.851 235.598L198.4 229.73H196.425L197.497 236.895H199.81L200.431 232.1L201.051 236.895H203.421L204.436 229.73H202.575L202.067 235.598Z" fill="#1E293B"/>
<path d="M206.298 227.53V236.895H212.334L212.56 235.147H208.498V227.53H206.298Z" fill="#1E293B"/>
<path d="M215.832 236.67C216.396 237.008 217.073 237.178 217.863 237.178C218.427 237.178 218.991 237.065 219.499 236.895C220.007 236.726 220.401 236.501 220.74 236.162L219.894 234.977C219.273 235.372 218.653 235.598 218.032 235.598C217.017 235.598 216.452 235.034 216.283 233.962H220.966C220.966 233.736 221.022 233.51 221.022 233.172C221.022 232.382 220.909 231.761 220.627 231.197C220.345 230.633 219.95 230.238 219.442 229.9C218.935 229.618 218.314 229.448 217.637 229.448C216.904 229.448 216.283 229.618 215.775 229.956C215.268 230.295 214.873 230.746 214.591 231.31C214.309 231.874 214.196 232.551 214.196 233.285C214.196 234.018 214.365 234.695 214.647 235.259C214.873 235.88 215.268 236.331 215.832 236.67ZM216.734 231.367C216.96 231.084 217.299 230.915 217.694 230.915C218.54 230.915 218.935 231.479 218.991 232.664H216.34C216.34 232.044 216.509 231.649 216.734 231.367Z" fill="#1E293B"/>
<path d="M226.945 228.433C227.115 228.264 227.453 228.207 227.848 228.207C228.412 228.207 228.92 228.32 229.371 228.489L229.992 227.079C229.258 226.797 228.469 226.628 227.51 226.628C226.55 226.628 225.817 226.853 225.309 227.305C224.802 227.756 224.52 228.376 224.52 229.11V230.125H222.996V231.592H224.52V236.839H226.663V231.592H228.751L228.976 230.125H226.607V229.166C226.663 228.884 226.72 228.602 226.945 228.433Z" fill="#1E293B"/>
<path d="M232.643 228.151V229.73H231.12V231.197H232.643V234.469C232.643 235.316 232.869 235.993 233.32 236.444C233.771 236.895 234.505 237.121 235.407 237.121C236.31 237.121 237.1 236.895 237.777 236.444L237.1 235.09C236.705 235.316 236.31 235.429 235.859 235.429C235.52 235.429 235.238 235.372 235.069 235.203C234.9 235.034 234.843 234.808 234.843 234.469V231.197H236.931L237.156 229.73H234.843V227.925L232.643 228.151Z" fill="#1E293B"/>
<path d="M242.29 230.69L242.572 226.853H240.541L240.767 230.69H242.29Z" fill="#1E293B"/>
<path d="M247.085 234.131C246.69 234.131 246.295 234.244 246.07 234.526C245.788 234.808 245.675 235.147 245.675 235.541C245.675 235.824 245.731 236.049 245.844 236.275C245.957 236.501 246.126 236.67 246.295 236.783L245.618 239.66H247.029L247.988 237.46C248.213 236.952 248.383 236.613 248.439 236.331C248.496 236.106 248.552 235.824 248.552 235.598C248.552 235.203 248.439 234.808 248.157 234.582C247.875 234.244 247.536 234.131 247.085 234.131Z" fill="#1E293B"/>
<path d="M158.064 251H159.587L159.813 247.163H157.782L158.064 251Z" fill="#1E293B"/>
<path d="M164.213 247.84L161.336 257.206H163.649L164.157 255.175H166.921L167.429 257.206H169.798L166.921 247.84H164.213ZM164.495 253.595L165.511 249.42L166.526 253.595H164.495Z" fill="#1E293B"/>
<path d="M175.834 255.795H174.424V253.764C174.593 253.2 174.819 252.749 175.157 252.41C175.44 252.072 175.834 251.846 176.229 251.733V253.087H177.583L177.978 250.097C177.64 249.928 177.245 249.871 176.793 249.871C176.229 249.871 175.722 250.041 175.327 250.323C174.932 250.605 174.593 251.056 174.311 251.677L173.916 250.041H171.321V251.451H172.28V255.795H171.321V257.206H175.834V255.795Z" fill="#1E293B"/>
<path d="M183.845 250.266C183.45 250.548 183.112 251 182.83 251.62L182.435 249.984H179.896V251.395H180.855V255.739H179.896V257.149H184.409V255.739H182.999V253.708C183.168 253.144 183.394 252.692 183.732 252.354C184.014 252.015 184.409 251.79 184.804 251.677V253.031H186.158L186.553 250.041C186.215 249.871 185.82 249.815 185.368 249.815C184.748 249.815 184.24 249.984 183.845 250.266Z" fill="#1E293B"/>
<path d="M191.574 249.815C190.841 249.815 190.22 249.984 189.712 250.323C189.204 250.661 188.81 251.113 188.528 251.677C188.245 252.241 188.133 252.918 188.133 253.708C188.133 254.892 188.415 255.852 189.035 256.529C189.656 257.206 190.502 257.544 191.63 257.544C192.759 257.544 193.605 257.206 194.225 256.529C194.846 255.852 195.128 254.892 195.128 253.708C195.128 252.523 194.846 251.62 194.225 250.943C193.492 250.153 192.646 249.815 191.574 249.815ZM192.533 255.344C192.307 255.682 192.025 255.908 191.574 255.908C191.123 255.908 190.784 255.739 190.615 255.4C190.389 255.062 190.276 254.441 190.276 253.651C190.276 252.861 190.389 252.297 190.615 251.959C190.84 251.62 191.123 251.451 191.574 251.451C192.025 251.451 192.364 251.62 192.533 251.959C192.759 252.297 192.871 252.861 192.871 253.651C192.815 254.385 192.759 255.005 192.533 255.344Z" fill="#1E293B"/>
<path d="M202.067 255.908L201.39 250.943H199.585L198.851 255.908L198.4 250.041H196.425L197.497 257.206H199.81L200.431 252.41L201.051 257.206H203.421L204.436 250.041H202.575L202.067 255.908Z" fill="#1E293B"/>
<path d="M212.391 252.297C212.729 251.846 212.898 251.338 212.898 250.718C212.898 249.759 212.56 249.025 211.939 248.574C211.319 248.122 210.36 247.897 209.062 247.897H206.129V257.262H208.329V253.651H208.949L210.98 257.262H213.519L211.093 253.313C211.601 253.031 212.052 252.749 212.391 252.297ZM210.19 251.79C209.965 252.015 209.57 252.128 209.062 252.128H208.216V249.42H208.949C209.457 249.42 209.852 249.533 210.134 249.759C210.416 249.984 210.529 250.323 210.529 250.774C210.585 251.169 210.473 251.564 210.19 251.79Z" fill="#1E293B"/>
<path d="M217.073 246.599C216.847 246.825 216.734 247.107 216.734 247.445C216.734 247.784 216.847 248.066 217.073 248.292C217.299 248.517 217.637 248.63 217.976 248.63C218.314 248.63 218.653 248.517 218.878 248.292C219.104 248.066 219.217 247.784 219.217 247.445C219.217 247.107 219.104 246.825 218.878 246.599C218.653 246.374 218.314 246.261 217.976 246.261C217.637 246.261 217.299 246.374 217.073 246.599Z" fill="#1E293B"/>
<path d="M219.273 250.041H215.155V251.507H217.129V255.739H215.098V257.206H221.135V255.739H219.273V250.041Z" fill="#1E293B"/>
<path d="M228.017 249.589C227.51 249.759 226.889 249.815 226.156 249.815C225.535 249.815 224.971 249.928 224.463 250.153C223.955 250.379 223.617 250.661 223.335 251.056C223.053 251.451 222.94 251.902 222.94 252.467C222.94 252.918 223.053 253.313 223.222 253.651C223.391 253.99 223.73 254.272 224.181 254.498C223.955 254.667 223.73 254.836 223.617 255.118C223.504 255.344 223.391 255.626 223.391 255.908C223.391 256.303 223.561 256.641 223.955 256.924C224.35 257.206 224.858 257.318 225.648 257.318H226.776C227.115 257.318 227.397 257.375 227.566 257.488C227.735 257.601 227.848 257.77 227.848 257.995C227.848 258.278 227.735 258.447 227.51 258.616C227.284 258.785 226.833 258.842 226.212 258.842C225.761 258.842 225.422 258.785 225.197 258.729C224.971 258.672 224.802 258.56 224.689 258.447C224.576 258.334 224.576 258.165 224.576 257.939H222.658C222.658 258.447 222.771 258.842 222.94 259.18C223.166 259.519 223.504 259.801 224.012 259.97C224.52 260.139 225.197 260.252 226.099 260.252C227.34 260.252 228.299 260.026 228.976 259.632C229.653 259.237 229.935 258.616 229.935 257.883C229.935 257.488 229.823 257.149 229.597 256.811C229.371 256.472 229.033 256.247 228.638 256.077C228.243 255.908 227.735 255.795 227.227 255.795H226.043C225.704 255.795 225.535 255.739 225.422 255.682C225.309 255.626 225.253 255.513 225.253 255.344C225.253 255.287 225.253 255.175 225.309 255.118C225.366 255.062 225.422 255.005 225.479 254.949C225.761 255.005 226.043 255.005 226.325 255.005C226.945 255.005 227.453 254.893 227.904 254.667C228.356 254.441 228.694 254.159 228.976 253.821C229.202 253.482 229.371 253.031 229.371 252.579C229.371 252.128 229.258 251.733 229.033 251.451C228.807 251.169 228.469 250.887 227.961 250.718C228.864 250.718 229.54 250.605 230.048 250.436L229.54 248.856C229.033 249.194 228.525 249.42 228.017 249.589ZM227.002 253.313C226.833 253.539 226.551 253.651 226.212 253.651C225.874 253.651 225.591 253.539 225.422 253.313C225.197 253.087 225.14 252.805 225.14 252.41C225.14 252.015 225.253 251.733 225.422 251.507C225.591 251.282 225.874 251.169 226.212 251.169C226.945 251.169 227.284 251.564 227.284 252.354C227.284 252.805 227.227 253.087 227.002 253.313Z" fill="#1E293B"/>
<path d="M236.141 249.815C235.351 249.815 234.618 250.153 234.054 250.774V246.994L231.91 247.22V257.262H234.054V252.297C234.279 252.015 234.505 251.79 234.674 251.62C234.9 251.451 235.069 251.395 235.295 251.395C235.577 251.395 235.746 251.507 235.859 251.677C235.972 251.846 236.028 252.128 236.028 252.579V257.262H238.172V251.959C238.172 251.282 238.003 250.718 237.664 250.379C237.326 250.041 236.761 249.815 236.141 249.815Z" fill="#1E293B"/>
<path d="M241.669 254.78C241.669 255.626 241.895 256.303 242.346 256.754C242.798 257.206 243.531 257.431 244.434 257.431C245.336 257.431 246.126 257.206 246.803 256.754L246.126 255.4C245.731 255.626 245.336 255.739 244.885 255.739C244.547 255.739 244.264 255.682 244.095 255.513C243.926 255.344 243.87 255.118 243.87 254.78V251.507H245.957L246.183 250.041H243.87V248.235L241.726 248.517V250.097H240.203V251.564H241.726V254.78H241.669Z" fill="#1E293B"/>
<path d="M249.793 251H251.316L251.598 247.163H249.567L249.793 251Z" fill="#1E293B"/>
<path d="M256.111 254.441C255.717 254.441 255.322 254.554 255.096 254.836C254.814 255.118 254.701 255.457 254.701 255.852C254.701 256.134 254.757 256.359 254.87 256.585C254.983 256.811 255.152 256.98 255.322 257.093L254.645 259.97H256.055L257.014 257.77C257.24 257.262 257.409 256.924 257.465 256.641C257.522 256.416 257.578 256.134 257.578 255.908C257.578 255.513 257.465 255.118 257.183 254.892C256.901 254.554 256.563 254.441 256.111 254.441Z" fill="#1E293B"/>
<path d="M158.064 271.31H159.587L159.813 267.474H157.782L158.064 271.31Z" fill="#1E293B"/>
<path d="M164.213 268.151L161.336 277.516H163.649L164.157 275.485H166.921L167.429 277.516H169.798L166.921 268.151H164.213ZM164.495 273.905L165.511 269.73L166.526 273.905H164.495Z" fill="#1E293B"/>
<path d="M175.834 276.105H174.424V274.074C174.593 273.51 174.819 273.059 175.157 272.72C175.44 272.382 175.834 272.156 176.229 272.043V273.397H177.583L177.978 270.407C177.64 270.238 177.245 270.182 176.793 270.182C176.229 270.182 175.722 270.351 175.327 270.633C174.932 270.915 174.593 271.366 174.311 271.987L173.916 270.351H171.321V271.761H172.28V276.105H171.321V277.516H175.834V276.105Z" fill="#1E293B"/>
<path d="M183.845 270.576C183.45 270.859 183.112 271.31 182.83 271.93L182.435 270.294H179.896V271.705H180.855V276.049H179.896V277.459H184.409V276.049H182.999V274.018C183.168 273.454 183.394 273.002 183.732 272.664C184.014 272.325 184.409 272.1 184.804 271.987V273.341H186.158L186.553 270.351C186.215 270.182 185.82 270.125 185.368 270.125C184.748 270.125 184.24 270.294 183.845 270.576Z" fill="#1E293B"/>
<path d="M191.574 270.125C190.841 270.125 190.22 270.294 189.712 270.633C189.204 270.971 188.81 271.423 188.528 271.987C188.245 272.551 188.133 273.228 188.133 274.018C188.133 275.203 188.415 276.162 189.035 276.839C189.656 277.516 190.502 277.854 191.63 277.854C192.759 277.854 193.605 277.516 194.225 276.839C194.846 276.162 195.128 275.203 195.128 274.018C195.128 272.833 194.846 271.93 194.225 271.253C193.492 270.464 192.646 270.125 191.574 270.125ZM192.533 275.654C192.307 275.993 192.025 276.218 191.574 276.218C191.123 276.218 190.784 276.049 190.615 275.71C190.389 275.372 190.276 274.751 190.276 273.961C190.276 273.172 190.389 272.607 190.615 272.269C190.84 271.93 191.123 271.761 191.574 271.761C192.025 271.761 192.364 271.93 192.533 272.269C192.759 272.607 192.871 273.172 192.871 273.961C192.815 274.695 192.759 275.316 192.533 275.654Z" fill="#1E293B"/>
<path d="M202.067 276.218L201.39 271.253H199.585L198.851 276.218L198.4 270.351H196.425L197.497 277.516H199.81L200.431 272.72L201.051 277.516H203.421L204.436 270.351H202.575L202.067 276.218Z" fill="#1E293B"/>
<path d="M206.298 268.151V277.516H212.334L212.56 275.767H208.498V268.151H206.298Z" fill="#1E293B"/>
<path d="M215.832 277.29C216.396 277.629 217.073 277.798 217.863 277.798C218.427 277.798 218.991 277.685 219.499 277.516C220.007 277.347 220.401 277.121 220.74 276.782L219.894 275.598C219.273 275.993 218.653 276.218 218.032 276.218C217.017 276.218 216.452 275.654 216.283 274.582H220.966C220.966 274.356 221.022 274.131 221.022 273.792C221.022 273.002 220.909 272.382 220.627 271.818C220.345 271.253 219.95 270.859 219.442 270.52C218.935 270.238 218.314 270.069 217.637 270.069C216.904 270.069 216.283 270.238 215.775 270.576C215.268 270.915 214.873 271.366 214.591 271.93C214.309 272.495 214.196 273.172 214.196 273.905C214.196 274.639 214.365 275.316 214.647 275.88C214.873 276.5 215.268 276.952 215.832 277.29ZM216.734 271.987C216.96 271.705 217.299 271.536 217.694 271.536C218.54 271.536 218.935 272.1 218.991 273.284H216.34C216.34 272.664 216.509 272.269 216.734 271.987Z" fill="#1E293B"/>
<path d="M226.945 269.053C227.115 268.884 227.453 268.828 227.848 268.828C228.412 268.828 228.92 268.94 229.371 269.11L229.992 267.699C229.258 267.417 228.469 267.248 227.51 267.248C226.55 267.248 225.817 267.474 225.309 267.925C224.802 268.376 224.52 268.997 224.52 269.73V270.746H222.996V272.213H224.52V277.459H226.663V272.213H228.751L228.976 270.746H226.607V269.787C226.663 269.505 226.72 269.222 226.945 269.053Z" fill="#1E293B"/>
<path d="M232.643 275.09C232.643 275.936 232.869 276.613 233.32 277.064C233.772 277.516 234.505 277.741 235.407 277.741C236.31 277.741 237.1 277.516 237.777 277.064L237.1 275.71C236.705 275.936 236.31 276.049 235.859 276.049C235.52 276.049 235.238 275.992 235.069 275.823C234.9 275.654 234.843 275.428 234.843 275.09V271.818H236.931L237.156 270.351H234.843V268.545L232.7 268.828V270.407H231.176V271.874H232.7V275.09H232.643Z" fill="#1E293B"/>
<path d="M240.767 271.31H242.29L242.572 267.474H240.541L240.767 271.31Z" fill="#1E293B"/>
<path d="M247.085 274.751C246.69 274.751 246.295 274.864 246.07 275.146C245.788 275.428 245.675 275.767 245.675 276.162C245.675 276.444 245.731 276.67 245.844 276.895C245.957 277.121 246.126 277.29 246.295 277.403L245.618 280.28H247.029L247.988 278.08C248.213 277.572 248.383 277.234 248.439 276.952C248.496 276.726 248.552 276.444 248.552 276.218C248.552 275.823 248.439 275.428 248.157 275.203C247.875 274.864 247.536 274.751 247.085 274.751Z" fill="#1E293B"/>
<path d="M158.064 291.62H159.587L159.813 287.784H157.782L158.064 291.62Z" fill="#1E293B"/>
<path d="M164.213 288.461L161.336 297.826H163.649L164.157 295.795H166.921L167.429 297.826H169.798L166.921 288.461H164.213ZM164.495 294.215L165.511 290.04L166.526 294.215H164.495Z" fill="#1E293B"/>
<path d="M177.527 293.651L177.922 290.661C177.583 290.492 177.188 290.435 176.737 290.435C176.173 290.435 175.665 290.605 175.27 290.887C174.875 291.169 174.537 291.62 174.255 292.241L173.86 290.605H171.265V292.015H172.224V296.359H171.265V297.77H175.778V296.359H174.368V294.328C174.537 293.764 174.763 293.313 175.101 292.974C175.383 292.636 175.778 292.41 176.173 292.297V293.651H177.527Z" fill="#1E293B"/>
<path d="M183.845 290.887C183.45 291.169 183.112 291.62 182.83 292.241L182.435 290.605H179.896V292.015H180.855V296.359H179.896V297.77H184.409V296.359H182.999V294.328C183.168 293.764 183.394 293.313 183.732 292.974C184.014 292.636 184.409 292.41 184.804 292.297V293.651H186.158L186.553 290.661C186.215 290.492 185.82 290.435 185.368 290.435C184.748 290.435 184.24 290.605 183.845 290.887Z" fill="#1E293B"/>
<path d="M191.574 290.435C190.841 290.435 190.22 290.605 189.712 290.943C189.204 291.282 188.81 291.733 188.528 292.297C188.245 292.861 188.133 293.538 188.133 294.328C188.133 295.513 188.415 296.472 189.035 297.149C189.656 297.826 190.502 298.164 191.63 298.164C192.759 298.164 193.605 297.826 194.225 297.149C194.846 296.472 195.128 295.513 195.128 294.328C195.128 293.143 194.846 292.241 194.225 291.564C193.492 290.774 192.646 290.435 191.574 290.435ZM192.533 295.964C192.307 296.303 192.025 296.528 191.574 296.528C191.123 296.528 190.784 296.359 190.615 296.021C190.389 295.682 190.276 295.061 190.276 294.272C190.276 293.482 190.389 292.918 190.615 292.579C190.84 292.241 191.123 292.071 191.574 292.071C192.025 292.071 192.364 292.241 192.533 292.579C192.759 292.918 192.871 293.482 192.871 294.272C192.815 295.005 192.759 295.626 192.533 295.964Z" fill="#1E293B"/>
<path d="M202.067 296.528L201.39 291.564H199.585L198.851 296.528L198.4 290.661H196.425L197.497 297.826H199.81L200.431 293.03L201.051 297.826H203.421L204.436 290.661H202.575L202.067 296.528Z" fill="#1E293B"/>
<path d="M212.391 292.918C212.729 292.466 212.898 291.959 212.898 291.338C212.898 290.379 212.56 289.645 211.939 289.194C211.319 288.743 210.36 288.517 209.062 288.517H206.129V297.882H208.329V294.272H208.949L210.98 297.882H213.519L211.093 293.933C211.601 293.651 212.052 293.369 212.391 292.918ZM210.19 292.41C209.965 292.636 209.57 292.748 209.062 292.748H208.216V290.04H208.949C209.457 290.04 209.852 290.153 210.134 290.379C210.416 290.605 210.529 290.943 210.529 291.394C210.585 291.789 210.473 292.184 210.19 292.41Z" fill="#1E293B"/>
<path d="M219.273 290.661H215.155V292.128H217.129V296.359H215.098V297.826H221.135V296.359H219.273V290.661Z" fill="#1E293B"/>
<path d="M217.073 287.219C216.847 287.445 216.734 287.727 216.734 288.066C216.734 288.404 216.847 288.686 217.073 288.912C217.299 289.138 217.637 289.251 217.976 289.251C218.314 289.251 218.653 289.138 218.878 288.912C219.104 288.686 219.217 288.404 219.217 288.066C219.217 287.727 219.104 287.445 218.878 287.219C218.653 286.994 218.314 286.881 217.976 286.881C217.637 286.881 217.299 286.994 217.073 287.219Z" fill="#1E293B"/>
<path d="M229.54 289.533C229.033 289.871 228.525 290.097 228.017 290.266C227.51 290.435 226.889 290.492 226.156 290.492C225.535 290.492 224.971 290.605 224.463 290.83C223.955 291.056 223.617 291.338 223.335 291.733C223.053 292.128 222.94 292.579 222.94 293.143C222.94 293.595 223.053 293.99 223.222 294.328C223.391 294.667 223.73 294.949 224.181 295.174C223.955 295.344 223.73 295.513 223.617 295.795C223.504 296.021 223.391 296.303 223.391 296.585C223.391 296.98 223.561 297.318 223.955 297.6C224.35 297.882 224.858 297.995 225.648 297.995H226.776C227.115 297.995 227.397 298.052 227.566 298.164C227.735 298.277 227.848 298.447 227.848 298.672C227.848 298.954 227.735 299.123 227.51 299.293C227.284 299.462 226.833 299.518 226.212 299.518C225.761 299.518 225.422 299.462 225.197 299.406C224.971 299.349 224.802 299.236 224.689 299.124C224.576 299.011 224.576 298.841 224.576 298.616H222.658C222.658 299.123 222.771 299.518 222.94 299.857C223.166 300.195 223.504 300.478 224.012 300.647C224.52 300.816 225.197 300.929 226.099 300.929C227.34 300.929 228.299 300.703 228.976 300.308C229.653 299.913 229.935 299.293 229.935 298.559C229.935 298.164 229.823 297.826 229.597 297.487C229.371 297.149 229.033 296.923 228.638 296.754C228.243 296.585 227.735 296.472 227.227 296.472H226.043C225.704 296.472 225.535 296.415 225.422 296.359C225.309 296.303 225.253 296.19 225.253 296.021C225.253 295.964 225.253 295.851 225.309 295.795C225.366 295.738 225.422 295.682 225.479 295.626C225.761 295.682 226.043 295.682 226.325 295.682C226.945 295.682 227.453 295.569 227.904 295.344C228.356 295.118 228.694 294.836 228.976 294.497C229.202 294.159 229.371 293.707 229.371 293.256C229.371 292.805 229.258 292.41 229.033 292.128C228.807 291.846 228.469 291.564 227.961 291.394C228.864 291.394 229.54 291.282 230.048 291.112L229.54 289.533ZM227.002 293.933C226.833 294.159 226.551 294.272 226.212 294.272C225.874 294.272 225.591 294.159 225.422 293.933C225.197 293.707 225.14 293.425 225.14 293.03C225.14 292.636 225.253 292.353 225.422 292.128C225.591 291.902 225.874 291.789 226.212 291.789C226.945 291.789 227.284 292.184 227.284 292.974C227.284 293.425 227.227 293.707 227.002 293.933Z" fill="#1E293B"/>
<path d="M236.141 290.435C235.351 290.435 234.618 290.774 234.054 291.394V287.614L231.91 287.84V297.882H234.054V292.918C234.279 292.636 234.505 292.41 234.674 292.241C234.9 292.071 235.069 292.015 235.295 292.015C235.577 292.015 235.746 292.128 235.859 292.297C235.972 292.466 236.028 292.748 236.028 293.2V297.882H238.172V292.579C238.172 291.902 238.003 291.338 237.664 290.999C237.326 290.661 236.761 290.435 236.141 290.435Z" fill="#1E293B"/>
<path d="M244.829 296.359C244.49 296.359 244.208 296.303 244.039 296.133C243.87 295.964 243.813 295.738 243.813 295.4V292.128H245.9L246.126 290.661H243.813V288.856L241.669 289.138V290.717H240.146V292.184H241.669V295.456C241.669 296.303 241.895 296.98 242.346 297.431C242.798 297.882 243.531 298.108 244.434 298.108C245.336 298.108 246.126 297.882 246.803 297.431L246.126 296.077C245.731 296.303 245.28 296.359 244.829 296.359Z" fill="#1E293B"/>
<path d="M249.793 291.62H251.316L251.598 287.784H249.567L249.793 291.62Z" fill="#1E293B"/>
<path d="M256.111 295.061C255.717 295.061 255.322 295.174 255.096 295.456C254.814 295.738 254.701 296.077 254.701 296.472C254.701 296.754 254.757 296.98 254.87 297.205C254.983 297.431 255.152 297.6 255.322 297.713L254.645 300.59H256.055L257.014 298.39C257.24 297.882 257.409 297.544 257.465 297.262C257.522 297.036 257.578 296.754 257.578 296.528C257.578 296.133 257.465 295.738 257.183 295.513C256.901 295.174 256.563 295.061 256.111 295.061Z" fill="#1E293B"/>
<path d="M158.064 311.93H159.587L159.813 308.094H157.782L158.064 311.93Z" fill="#1E293B"/>
<path d="M167.034 310.745C166.695 310.745 166.357 310.858 166.018 311.028C165.68 311.197 165.398 311.422 165.172 311.761V307.925L163.028 308.15V318.192H164.947L165.003 317.515C165.229 317.798 165.454 318.023 165.793 318.192C166.131 318.362 166.413 318.418 166.808 318.418C167.429 318.418 167.936 318.249 168.388 317.91C168.839 317.572 169.178 317.121 169.403 316.556C169.629 315.992 169.742 315.315 169.742 314.582C169.742 313.397 169.516 312.438 169.065 311.761C168.613 311.084 167.936 310.745 167.034 310.745ZM166.244 316.838C165.793 316.838 165.454 316.613 165.172 316.161V313.115C165.511 312.551 165.906 312.269 166.357 312.269C166.752 312.269 167.034 312.438 167.203 312.776C167.372 313.115 167.485 313.679 167.485 314.525C167.485 316.105 167.09 316.838 166.244 316.838Z" fill="#1E293B"/>
<path d="M172.619 311.93H174.142L174.368 308.094H172.337L172.619 311.93Z" fill="#1E293B"/>
<path d="M178.937 315.372C178.542 315.372 178.147 315.484 177.922 315.767C177.64 316.049 177.527 316.387 177.527 316.782C177.527 317.064 177.583 317.29 177.696 317.515C177.809 317.741 177.978 317.91 178.147 318.023L177.47 320.901H178.881L179.84 318.7C180.065 318.193 180.235 317.854 180.291 317.572C180.348 317.346 180.404 317.064 180.404 316.838C180.404 316.444 180.291 316.049 180.009 315.823C179.727 315.484 179.332 315.372 178.937 315.372Z" fill="#1E293B"/>
<path d="M158.064 332.24H159.587L159.813 328.404H157.782L158.064 332.24Z" fill="#1E293B"/>
<path d="M168.952 336.979C168.895 336.867 168.839 336.641 168.839 336.415V333.594C168.839 331.902 167.767 331.056 165.68 331.056C165.285 331.056 164.834 331.112 164.326 331.225C163.818 331.338 163.367 331.451 162.859 331.62L163.367 333.03C163.705 332.917 164.044 332.805 164.439 332.748C164.777 332.692 165.116 332.635 165.341 332.635C166.3 332.635 166.752 333.03 166.752 333.764V334.046H165.793C164.664 334.046 163.818 334.271 163.198 334.666C162.577 335.118 162.295 335.682 162.295 336.472C162.295 337.149 162.521 337.656 162.972 338.108C163.423 338.503 163.987 338.728 164.721 338.728C165.172 338.728 165.623 338.672 166.075 338.503C166.47 338.333 166.808 338.108 167.09 337.769C167.259 338.051 167.485 338.277 167.767 338.446C168.049 338.616 168.444 338.672 168.839 338.728L169.29 337.318C169.178 337.205 169.008 337.092 168.952 336.979ZM166.808 336.359C166.695 336.584 166.47 336.81 166.244 336.923C166.018 337.036 165.736 337.149 165.511 337.149C165.229 337.149 164.947 337.092 164.777 336.923C164.608 336.754 164.552 336.528 164.552 336.246C164.552 335.513 165.116 335.174 166.3 335.174H166.808V336.359Z" fill="#1E293B"/>
<path d="M172.167 332.24H173.691L173.973 328.404H171.942L172.167 332.24Z" fill="#1E293B"/>
<path d="M178.486 335.682C178.091 335.682 177.696 335.795 177.47 336.077C177.188 336.359 177.076 336.697 177.076 337.092C177.076 337.374 177.132 337.6 177.245 337.826C177.358 338.051 177.527 338.221 177.696 338.333L177.019 341.211H178.429L179.388 339.01C179.614 338.503 179.783 338.164 179.84 337.882C179.896 337.656 179.953 337.374 179.953 337.149C179.953 336.754 179.84 336.359 179.558 336.133C179.276 335.795 178.937 335.682 178.486 335.682Z" fill="#1E293B"/>
<path d="M138.94 349.222H141.083V358.869H138.94V360.449H143.114V347.642H138.94V349.222Z" fill="#1E293B"/>
<path d="M148.022 356.105C147.627 356.105 147.289 356.218 147.007 356.5C146.725 356.782 146.612 357.12 146.612 357.515C146.612 357.741 146.668 357.967 146.781 358.192C146.894 358.418 147.063 358.587 147.233 358.7L146.556 361.464H147.966L148.925 359.321C149.151 358.869 149.263 358.531 149.376 358.249C149.433 358.023 149.489 357.741 149.489 357.515C149.489 357.12 149.376 356.782 149.094 356.5C148.756 356.274 148.417 356.105 148.022 356.105Z" fill="#1E293B"/>
<path d="M148.022 351.479C147.627 351.479 147.289 351.591 147.007 351.874C146.725 352.156 146.612 352.494 146.612 352.889C146.612 353.284 146.725 353.622 147.007 353.905C147.289 354.187 147.627 354.299 148.022 354.299C148.417 354.299 148.756 354.187 149.038 353.905C149.32 353.622 149.433 353.284 149.433 352.889C149.433 352.494 149.32 352.156 149.038 351.874C148.699 351.648 148.417 351.479 148.022 351.479Z" fill="#1E293B"/>
<path d="M109.153 128.067V133.765H106.84V135.345H112.933V133.765H111.184V125.979H109.322L106.276 127.841L107.179 129.308L109.153 128.067Z" fill="#1E293B"/>
<path d="M108.138 147.926C108.42 147.756 108.702 147.7 109.04 147.7C109.435 147.7 109.774 147.813 109.999 148.038C110.225 148.264 110.338 148.546 110.338 148.941C110.338 149.336 110.225 149.731 109.943 150.126C109.717 150.521 109.322 151.029 108.758 151.649C108.194 152.27 107.404 153.06 106.276 154.188V155.711H112.482L112.707 154.075H108.702C109.661 153.172 110.451 152.439 110.958 151.875C111.523 151.311 111.861 150.747 112.143 150.295C112.369 149.844 112.482 149.336 112.482 148.828C112.482 148.321 112.369 147.869 112.087 147.474C111.861 147.079 111.466 146.741 110.958 146.515C110.451 146.29 109.887 146.177 109.21 146.177C108.476 146.177 107.856 146.29 107.348 146.572C106.84 146.854 106.389 147.249 105.994 147.756L107.291 148.772C107.574 148.321 107.856 148.095 108.138 147.926Z" fill="#1E293B"/>
<path d="M108.871 174.555C108.081 174.555 107.461 174.272 106.897 173.652L105.712 174.78C106.107 175.232 106.615 175.57 107.122 175.796C107.686 176.021 108.307 176.134 108.984 176.134C109.717 176.134 110.338 176.021 110.902 175.739C111.466 175.514 111.861 175.119 112.143 174.724C112.425 174.272 112.594 173.821 112.594 173.257C112.594 171.903 111.861 171.113 110.394 170.944C111.015 170.775 111.466 170.493 111.805 170.098C112.143 169.703 112.312 169.251 112.312 168.687C112.312 168.236 112.2 167.841 111.917 167.502C111.635 167.164 111.297 166.825 110.789 166.656C110.281 166.43 109.717 166.318 109.097 166.318C107.856 166.318 106.784 166.769 105.881 167.615L106.953 168.744C107.517 168.179 108.138 167.954 108.815 167.954C109.21 167.954 109.548 168.067 109.83 168.236C110.056 168.461 110.225 168.744 110.225 169.082C110.225 169.477 110.112 169.759 109.83 169.985C109.548 170.21 109.21 170.323 108.815 170.323H108.194L107.968 171.79H108.815C109.887 171.79 110.394 172.241 110.394 173.201C110.394 173.652 110.225 173.99 109.943 174.216C109.774 174.442 109.379 174.555 108.871 174.555Z" fill="#1E293B"/>
<path d="M112.03 190.464H110.225L109.999 192.721H108.307L110.507 187.361L108.702 186.684L106.107 192.89V194.301H109.999V196.275H112.03V194.301H112.989V192.721H112.03V190.464Z" fill="#1E293B"/>
<path d="M107.348 216.472C107.856 216.698 108.476 216.867 109.153 216.867C109.887 216.867 110.507 216.698 111.071 216.416C111.635 216.134 112.087 215.739 112.369 215.231C112.651 214.724 112.82 214.159 112.82 213.539C112.82 212.918 112.707 212.41 112.482 211.903C112.256 211.451 111.917 211.113 111.523 210.831C111.128 210.549 110.676 210.436 110.169 210.436C109.717 210.436 109.21 210.549 108.815 210.774V208.743H112.256L112.482 207.22H106.784V212.241H108.251C108.645 212.015 108.984 211.903 109.379 211.903C110.225 211.903 110.676 212.467 110.676 213.539C110.676 214.047 110.507 214.441 110.225 214.724C109.943 215.006 109.548 215.175 109.04 215.175C108.702 215.175 108.42 215.118 108.081 214.949C107.799 214.78 107.517 214.554 107.292 214.272L106.05 215.401C106.389 215.852 106.84 216.19 107.348 216.472Z" fill="#1E293B"/>
<path d="M112.651 232.044C112.425 231.592 112.087 231.197 111.692 230.972C111.297 230.746 110.846 230.633 110.338 230.633C109.999 230.633 109.661 230.69 109.322 230.859C108.984 231.028 108.645 231.197 108.42 231.479C108.476 230.633 108.645 230.013 108.984 229.505C109.322 229.053 109.774 228.828 110.281 228.828C110.733 228.828 111.128 228.941 111.466 229.223L112.256 227.925C111.692 227.53 111.015 227.305 110.225 227.305C109.379 227.305 108.645 227.53 108.081 227.982C107.461 228.433 107.009 229.053 106.671 229.9C106.332 230.69 106.163 231.649 106.163 232.721C106.163 234.018 106.445 235.09 107.009 235.936C107.574 236.783 108.476 237.178 109.661 237.178C110.338 237.178 110.902 237.008 111.41 236.726C111.917 236.444 112.312 235.993 112.594 235.485C112.876 234.977 112.989 234.413 112.989 233.736C112.989 233.115 112.876 232.551 112.651 232.044ZM110.563 235.147C110.394 235.485 110.056 235.654 109.717 235.654C109.266 235.654 108.927 235.429 108.758 234.977C108.589 234.526 108.476 233.793 108.476 232.833C108.702 232.608 108.871 232.438 109.153 232.326C109.379 232.213 109.661 232.156 109.887 232.156C110.225 232.156 110.507 232.269 110.676 232.551C110.846 232.833 110.958 233.285 110.958 233.905C110.846 234.357 110.789 234.808 110.563 235.147Z" fill="#1E293B"/>
<path d="M109.097 257.431L112.707 249.307V247.84H106.445V249.476H110.507L107.066 256.811L109.097 257.431Z" fill="#1E293B"/>
<path d="M111.24 272.438C111.748 272.156 112.087 271.874 112.369 271.536C112.594 271.197 112.707 270.859 112.707 270.407C112.707 269.899 112.594 269.448 112.312 269.11C112.03 268.715 111.692 268.433 111.24 268.263C110.789 268.038 110.225 267.981 109.604 267.981C108.984 267.981 108.476 268.094 108.025 268.32C107.574 268.545 107.179 268.828 106.897 269.222C106.615 269.617 106.502 270.069 106.502 270.576C106.502 271.084 106.615 271.479 106.784 271.818C107.009 272.156 107.348 272.438 107.856 272.777C107.291 273.002 106.897 273.341 106.615 273.736C106.332 274.131 106.163 274.582 106.163 275.146C106.163 275.654 106.276 276.105 106.558 276.5C106.84 276.895 107.235 277.234 107.743 277.516C108.251 277.741 108.871 277.911 109.604 277.911C110.338 277.911 111.015 277.798 111.523 277.516C112.03 277.29 112.425 276.952 112.707 276.5C112.989 276.049 113.102 275.598 113.102 275.146C113.046 273.905 112.425 273.059 111.24 272.438ZM108.758 269.674C108.927 269.505 109.21 269.392 109.548 269.392C109.887 269.392 110.169 269.505 110.338 269.73C110.507 269.956 110.62 270.238 110.62 270.576C110.62 270.859 110.563 271.084 110.451 271.31C110.338 271.536 110.112 271.761 109.83 271.987C109.379 271.818 108.984 271.592 108.815 271.366C108.589 271.141 108.476 270.859 108.476 270.576C108.476 270.125 108.589 269.843 108.758 269.674ZM110.563 275.88C110.338 276.105 109.999 276.218 109.548 276.218C109.097 276.218 108.758 276.105 108.533 275.88C108.307 275.654 108.194 275.315 108.194 274.921C108.194 274.187 108.476 273.679 109.097 273.284C109.548 273.454 109.887 273.623 110.169 273.736C110.394 273.849 110.62 274.018 110.733 274.244C110.846 274.413 110.902 274.695 110.902 274.977C110.902 275.315 110.789 275.654 110.563 275.88Z" fill="#1E293B"/>
<path d="M109.492 288.235C108.815 288.235 108.251 288.404 107.743 288.686C107.235 288.968 106.84 289.363 106.502 289.871C106.22 290.379 106.05 290.943 106.05 291.62C106.05 292.184 106.163 292.748 106.389 293.2C106.615 293.651 106.953 293.99 107.348 294.272C107.743 294.497 108.194 294.667 108.702 294.667C109.097 294.667 109.435 294.61 109.717 294.497C109.999 294.385 110.338 294.159 110.62 293.933C110.394 294.667 109.999 295.287 109.379 295.739C108.758 296.19 107.912 296.585 106.784 296.867L107.235 298.39C108.589 298.108 109.661 297.713 110.451 297.205C111.297 296.698 111.917 296.021 112.312 295.174C112.707 294.328 112.933 293.313 112.933 292.128C112.933 290.999 112.651 290.097 112.03 289.42C111.466 288.574 110.62 288.235 109.492 288.235ZM109.435 293.087C109.097 293.087 108.815 292.974 108.589 292.692C108.363 292.466 108.251 292.015 108.251 291.507C108.251 290.887 108.363 290.435 108.589 290.153C108.815 289.871 109.097 289.702 109.492 289.702C109.83 289.702 110.112 289.815 110.281 289.984C110.451 290.21 110.564 290.492 110.676 290.887C110.733 291.282 110.789 291.846 110.789 292.523C110.338 292.918 109.887 293.087 109.435 293.087Z" fill="#1E293B"/>
<path d="M111.184 308.771H109.322L106.276 310.633L107.179 312.099L109.153 310.858V316.556H106.84V318.136H112.933V316.556H111.184V308.771Z" fill="#1E293B"/>
<path d="M117.728 312.607C117.502 312.607 117.277 312.72 117.107 312.889C116.938 313.059 116.882 313.284 116.882 313.51C116.882 313.736 116.938 313.961 117.107 314.13C117.277 314.3 117.502 314.413 117.728 314.413C117.954 314.413 118.179 314.3 118.349 314.13C118.518 313.961 118.631 313.736 118.631 313.51C118.631 313.284 118.518 313.059 118.349 312.889C118.179 312.72 118.01 312.607 117.728 312.607Z" fill="#1E293B"/>
<path d="M117.784 308.545C116.656 308.545 115.81 308.996 115.246 309.843C114.682 310.689 114.4 311.93 114.4 313.453C114.4 315.033 114.682 316.218 115.246 317.121C115.81 317.967 116.656 318.418 117.784 318.418C118.913 318.418 119.759 317.967 120.323 317.121C120.887 316.274 121.169 315.033 121.169 313.453C121.169 311.874 120.887 310.689 120.323 309.843C119.703 308.94 118.856 308.545 117.784 308.545ZM118.744 316.049C118.518 316.556 118.236 316.838 117.728 316.838C117.277 316.838 116.938 316.556 116.713 316.049C116.487 315.541 116.374 314.638 116.374 313.397C116.374 312.212 116.487 311.31 116.713 310.802C116.938 310.294 117.277 310.012 117.728 310.012C118.179 310.012 118.518 310.294 118.687 310.802C118.913 311.31 119.026 312.156 119.026 313.397C119.082 314.695 118.969 315.541 118.744 316.049Z" fill="#1E293B"/>
<path d="M111.184 329.081H109.322L106.276 330.943L107.179 332.41L109.153 331.168V336.867H106.84V338.446H112.933V336.867H111.184V329.081Z" fill="#1E293B"/>
<path d="M117.39 329.081L114.343 330.943L115.246 332.41L117.22 331.168V336.867H114.907V338.446H121V336.867H119.251V329.081H117.39Z" fill="#1E293B"/>
<path d="M111.184 349.391H109.322L106.276 351.253L107.179 352.72L109.153 351.479V357.177H106.84V358.756H112.933V357.177H111.184V349.391Z" fill="#1E293B"/>
<path d="M119.364 354.92C119.928 354.356 120.267 353.792 120.549 353.34C120.774 352.889 120.887 352.381 120.887 351.874C120.887 351.366 120.774 350.914 120.492 350.52C120.267 350.125 119.872 349.786 119.364 349.56C118.856 349.335 118.292 349.222 117.615 349.222C116.882 349.222 116.261 349.335 115.754 349.617C115.246 349.899 114.795 350.294 114.4 350.802L115.697 351.817C115.923 351.479 116.205 351.253 116.487 351.084C116.769 350.914 117.051 350.858 117.39 350.858C117.784 350.858 118.123 350.971 118.349 351.197C118.574 351.422 118.687 351.704 118.687 352.099C118.687 352.494 118.574 352.889 118.292 353.284C118.067 353.679 117.672 354.187 117.108 354.807C116.543 355.428 115.754 356.218 114.625 357.346V358.869H120.831L121.057 357.233H117.051C118.067 356.274 118.8 355.541 119.364 354.92Z" fill="#1E293B"/>
<path d="M59.4525 90.0981L76.2074 73.2858" stroke="#1E293B" stroke-width="3" stroke-linecap="round" stroke-linejoin="round"/>
<path d="M49.8058 66.8543H73.4996" stroke="#1E293B" stroke-width="3" stroke-linecap="round" stroke-linejoin="round"/>
<path d="M59.4525 43.6104L76.2074 60.4227" stroke="#1E293B" stroke-width="3" stroke-linecap="round" stroke-linejoin="round"/>
<path d="M82.6387 34.0195V57.7147" stroke="#1E293B" stroke-width="3" stroke-linecap="round" stroke-linejoin="round"/>
<path d="M105.881 43.6104L89.1262 60.4227" stroke="#1E293B" stroke-width="3" stroke-linecap="round" stroke-linejoin="round"/>
<path d="M554.146 198.306H271.512V420.59H554.146V198.306Z" fill="#1E293B" stroke="#1E293B" stroke-width="3" stroke-linecap="round" stroke-linejoin="round"/>
<path d="M546.248 190.408H263.615V412.691H546.248V190.408Z" fill="#F7F3E9" stroke="#1E293B" stroke-width="3" stroke-linecap="round" stroke-linejoin="round"/>
<path d="M546.248 190.408H263.615V219.745H546.248V190.408Z" fill="#F7F3E9" stroke="#1E293B" stroke-width="3" stroke-linecap="round" stroke-linejoin="round"/>
<path d="M528.703 209.025C530.884 209.025 532.652 207.257 532.652 205.076C532.652 202.895 530.884 201.127 528.703 201.127C526.523 201.127 524.755 202.895 524.755 205.076C524.755 207.257 526.523 209.025 528.703 209.025Z" fill="#F8C7C7" stroke="#1E293B" stroke-width="3" stroke-linecap="round" stroke-linejoin="round"/>
<path d="M512.908 209.025C515.089 209.025 516.857 207.257 516.857 205.076C516.857 202.895 515.089 201.127 512.908 201.127C510.727 201.127 508.959 202.895 508.959 205.076C508.959 207.257 510.727 209.025 512.908 209.025Z" fill="#F8EAC7" stroke="#1E293B" stroke-width="3" stroke-linecap="round" stroke-linejoin="round"/>
<path d="M497.112 209.025C499.293 209.025 501.061 207.257 501.061 205.076C501.061 202.895 499.293 201.127 497.112 201.127C494.931 201.127 493.163 202.895 493.163 205.076C493.163 207.257 494.931 209.025 497.112 209.025Z" fill="#CBF2D1" stroke="#1E293B" stroke-width="3" stroke-linecap="round" stroke-linejoin="round"/>
<path d="M460.217 260.76H349.815V371.168H460.217V260.76Z" fill="#F7F3E9" stroke="#1E293B" stroke-width="3" stroke-linecap="round" stroke-linejoin="round"/>
<path d="M468.228 252.805H453.109V267.925H468.228V252.805Z" fill="white" stroke="#1E293B" stroke-width="3" stroke-linecap="round" stroke-linejoin="round"/>
<path d="M468.228 363.27H453.109V378.39H468.228V363.27Z" fill="white" stroke="#1E293B" stroke-width="3" stroke-linecap="round" stroke-linejoin="round"/>
<path d="M357.036 252.805H341.917V267.925H357.036V252.805Z" fill="white" stroke="#1E293B" stroke-width="3" stroke-linecap="round" stroke-linejoin="round"/>
<path d="M357.036 363.27H341.917V378.39H357.036V363.27Z" fill="white" stroke="#1E293B" stroke-width="3" stroke-linecap="round" stroke-linejoin="round"/>
<path d="M405.101 357.29C427.814 357.29 446.226 338.876 446.226 316.162C446.226 293.447 427.814 275.033 405.101 275.033C382.387 275.033 363.975 293.447 363.975 316.162C363.975 338.876 382.387 357.29 405.101 357.29Z" fill="#C7E6F8"/>
<path d="M405.101 357.233C402.562 357.233 400.023 357.008 397.541 356.556C399.967 357.008 402.506 357.233 405.101 357.233ZM405.101 357.233C407.075 357.233 409.05 357.12 410.968 356.838M432.179 347.078C435.564 344.088 438.441 340.59 440.754 336.641C438.385 340.59 435.564 344.088 432.179 347.078ZM376.555 345.781C373.34 342.678 370.632 339.123 368.601 335.118C370.688 339.067 373.283 342.678 376.555 345.781ZM364.144 312.212C364.595 307.699 365.724 303.298 367.642 299.18C365.724 303.298 364.539 307.643 364.144 312.212ZM442.559 299.18C444.421 303.298 445.606 307.699 446.057 312.212C445.549 307.643 444.365 303.298 442.559 299.18ZM430.318 283.722C426.764 280.957 422.871 278.813 418.64 277.347C422.871 278.813 426.82 280.957 430.318 283.722ZM382.873 281.521C386.71 279.095 390.884 277.29 395.285 276.218C390.941 277.29 386.766 279.039 382.873 281.521Z" stroke="#1E293B" stroke-width="3" stroke-linecap="round" stroke-linejoin="round"/>
<path d="M510.143 395.484V380.421" stroke="#1E293B" stroke-width="3" stroke-linecap="round" stroke-linejoin="round"/>
<path d="M492.091 385.047L505.179 377.543" stroke="#1E293B" stroke-width="3" stroke-linecap="round" stroke-linejoin="round"/>
<path d="M492.091 364.172L505.179 371.676" stroke="#1E293B" stroke-width="3" stroke-linecap="round" stroke-linejoin="round"/>
<path d="M510.143 353.735V368.799" stroke="#1E293B" stroke-width="3" stroke-linecap="round" stroke-linejoin="round"/>
<path d="M528.308 364.172L515.164 371.676" stroke="#1E293B" stroke-width="3" stroke-linecap="round" stroke-linejoin="round"/>
<path d="M528.308 385.047L515.164 377.543" stroke="#1E293B" stroke-width="3" stroke-linecap="round" stroke-linejoin="round"/>
<path d="M105.658 334.043C140.865 334.043 169.406 305.5 169.406 270.291C169.406 235.083 140.865 206.54 105.658 206.54C70.4512 206.54 41.9103 235.083 41.9103 270.291C41.9103 305.5 70.4512 334.043 105.658 334.043Z" fill="#C7E6F8" stroke="#1E293B" stroke-width="3" stroke-linecap="round" stroke-linejoin="round"/>
<path d="M41.9103 270.291C41.9103 235.087 70.4558 206.54 105.658 206.54C140.86 206.54 169.406 235.087 169.406 270.291" fill="#CBF2D1"/>
<path d="M41.9103 270.291C41.9103 235.087 70.4558 206.54 105.658 206.54C140.86 206.54 169.406 235.087 169.406 270.291" stroke="#1E293B" stroke-width="3" stroke-linecap="round" stroke-linejoin="round"/>
<path d="M105.658 291.561C140.865 291.561 169.406 282.038 169.406 270.291C169.406 258.545 140.865 249.022 105.658 249.022C70.4512 249.022 41.9103 258.545 41.9103 270.291C41.9103 282.038 70.4512 291.561 105.658 291.561Z" fill="#F8C7C7" stroke="#1E293B" stroke-width="3" stroke-linecap="round" stroke-linejoin="round"/>
<path d="M105.714 334.043C103.853 334.043 102.104 333.366 100.355 332.068M100.355 332.068C98.6627 330.771 97.0831 328.852 95.56 326.426C97.0831 328.909 98.7191 330.771 100.355 332.068ZM126.475 283.549C126.757 279.205 126.926 274.748 126.926 270.291M84.39 270.404V270.291C84.39 265.835 84.5593 261.378 84.8413 257.09M125.572 248.12C125.008 243.493 124.275 239.093 123.372 234.974M111.017 208.515C112.653 209.812 114.289 211.731 115.813 214.213C114.289 211.731 112.653 209.869 111.017 208.515ZM111.017 208.515C109.269 207.161 107.52 206.484 105.714 206.484C105.658 206.484 105.658 206.484 105.602 206.484M119.649 318.302C121.059 314.579 122.357 310.291 123.372 305.552C122.3 310.235 121.059 314.579 119.649 318.302ZM88.0005 305.665C87.0979 301.547 86.3645 297.146 85.7439 292.52C86.3081 297.146 87.0415 301.547 88.0005 305.665ZM87.9441 235.087C88.9595 230.348 90.2571 226.06 91.6674 222.337C90.2571 226.06 88.9595 230.405 87.9441 235.087Z" stroke="#1E293B" stroke-width="3" stroke-linecap="round" stroke-linejoin="round"/>
<path d="M105.658 334.043V206.54" stroke="#1E293B" stroke-width="3" stroke-linecap="round" stroke-linejoin="round"/>
<path d="M403.972 49.4778V39.0406H413.732H403.972V49.4778Z" stroke="#1B293D" stroke-width="3" stroke-miterlimit="10" stroke-linecap="round" stroke-linejoin="round"/>
<path d="M441.713 85.6976V76.6144H449.668H441.713V85.6976Z" stroke="#1B293D" stroke-width="3" stroke-miterlimit="10" stroke-linecap="round" stroke-linejoin="round"/>
<path d="M441.713 109.167V114.245" stroke="#1E293B" stroke-width="3" stroke-linecap="round" stroke-linejoin="round"/>
</g>
<defs>
<clipPath id="clip0_135_957">
<rect width="555" height="422" fill="white" transform="translate(0.5)"/>
</clipPath>
</defs>
</svg>
