<svg xmlns="http://www.w3.org/2000/svg" version="1.1" xmlns:xlink="http://www.w3.org/1999/xlink" xmlns:svgjs="http://svgjs.dev/svgjs" width="68" height="68"><svg width="68" height="68" viewBox="0 0 68 68" fill="none" xmlns="http://www.w3.org/2000/svg">
  <path d="M65.2646 34.9456V53H47.2103C47.2103 43.0288 55.2934 34.9456 65.2646 34.9456Z" fill="#1E293B"></path>
  <path d="M47.2103 17H29.1559V53H47.2103V17Z" fill="#1E293B"></path>
  <path d="M5.00218 28.8572C5 28.9289 5 29.0007 5 29.0725V28.855H5.00218V28.8572Z" fill="#1E293B"></path>
  <path d="M29.145 53H5V29.0725C5 29.0007 5 28.9289 5.00218 28.8572L29.145 53Z" fill="#1E293B"></path>
  <path d="M29.145 29.0725C29.145 35.6678 23.8549 41.0276 17.2879 41.1428L5.00218 28.8572C5.11746 22.2902 10.4772 17 17.0725 17C23.6678 17 29.145 22.4054 29.145 29.0725Z" fill="#1E293B"></path>
  <path d="M47.2103 53H65.2646V34.9456C55.2934 34.9456 47.2103 43.0288 47.2103 53ZM47.2103 53V17H29.1559V53H47.2103ZM5.00218 28.8572C5 28.9289 5 29.0007 5 29.0725M5.00218 28.8572V28.855H5V29.0725M5.00218 28.8572L29.145 53H5V29.0725M5.00218 28.8572L17.2879 41.1428C23.8549 41.0276 29.145 35.6678 29.145 29.0725C29.145 22.4054 23.6678 17 17.0725 17C10.4772 17 5.11746 22.2902 5.00218 28.8572Z" stroke="#1E293B" stroke-width="2" stroke-linejoin="round"></path>
  <path d="M63.2646 32.9456V51H45.2103C45.2103 41.0288 53.2934 32.9456 63.2646 32.9456Z" fill="#DEC6FF"></path>
  <path d="M45.2103 15H27.1559V51H45.2103V15Z" fill="#F8EAC7"></path>
  <path d="M3.00218 26.8572C3 26.9289 3 27.0007 3 27.0725V26.855H3.00218V26.8572Z" fill="#FFFDF7"></path>
  <path d="M27.145 51H3V27.0725C3 27.0007 3 26.9289 3.00218 26.8572L27.145 51Z" fill="#F8BFBF"></path>
  <path d="M27.145 27.0725C27.145 33.6678 21.8549 39.0276 15.2879 39.1428L3.00218 26.8572C3.11746 20.2902 8.47722 15 15.0725 15C21.6678 15 27.145 20.4054 27.145 27.0725Z" fill="#BFE3F8"></path>
  <path d="M45.2103 51H63.2646V32.9456C53.2934 32.9456 45.2103 41.0288 45.2103 51ZM45.2103 51V15H27.1559V51H45.2103ZM3.00218 26.8572C3 26.9289 3 27.0007 3 27.0725M3.00218 26.8572V26.855H3V27.0725M3.00218 26.8572L27.145 51H3V27.0725M3.00218 26.8572L15.2879 39.1428C21.8549 39.0276 27.145 33.6678 27.145 27.0725C27.145 20.4054 21.6678 15 15.0725 15C8.47722 15 3.11746 20.2902 3.00218 26.8572Z" stroke="#1E293B" stroke-width="2" stroke-linejoin="round"></path>
</svg><style>@media (prefers-color-scheme: light) { :root { filter: none; } }
@media (prefers-color-scheme: dark) { :root { filter: none; } }
</style></svg>