<svg width="116" height="25" viewBox="0 0 116 25" fill="none" xmlns="http://www.w3.org/2000/svg">
<path fill-rule="evenodd" clip-rule="evenodd" d="M12.2572 1.73959C6.23992 1.73959 1.36192 6.51521 1.36192 12.4062C1.36192 18.2973 6.23992 23.0729 12.2572 23.0729C18.2745 23.0729 23.1525 18.2973 23.1525 12.4062C23.1525 6.51521 18.2745 1.73959 12.2572 1.73959ZM0 12.4062C0 5.77883 5.48775 0.40625 12.2572 0.40625C19.0267 0.40625 24.5145 5.77883 24.5145 12.4062C24.5145 19.0337 19.0267 24.4062 12.2572 24.4062C5.48775 24.4062 0 19.0337 0 12.4062Z" fill="#0F172A"/>
<path d="M10.0351 17.9329C9.95986 17.9329 9.90544 17.8625 9.92585 17.7916L13.0424 6.9539C13.0562 6.90601 13.1008 6.8729 13.1517 6.8729H14.5059C14.5812 6.8729 14.6356 6.94333 14.6151 7.01424L11.4861 17.852C11.4723 17.8998 11.4277 17.9329 11.3769 17.9329H10.0351Z" fill="#0F172A"/>
<path d="M7.84407 15.2012C7.81371 15.2012 7.78461 15.1893 7.76327 15.1681L5.03847 12.4646C4.99479 12.4213 4.99485 12.3516 5.03863 12.3084L7.7633 9.61696C7.78461 9.59591 7.81364 9.58407 7.84391 9.58407H9.58356C9.68467 9.58407 9.7353 9.70373 9.66381 9.77375L7.07521 12.308C7.03094 12.3513 7.03088 12.4215 7.07504 12.465L9.66485 15.0117C9.73611 15.0818 9.68541 15.2012 9.58443 15.2012H7.84407Z" fill="#0F172A"/>
<path d="M14.9469 15.2012C14.846 15.2012 14.7953 15.082 14.8663 15.0119L17.445 12.4648C17.4889 12.4214 17.4888 12.3515 17.4448 12.3082L14.8673 9.77356C14.7961 9.7035 14.8468 9.58407 14.9478 9.58407H16.6757C16.7059 9.58407 16.7348 9.59584 16.7561 9.61677L19.493 12.3082C19.537 12.3515 19.5371 12.4214 19.4932 12.4648L16.7562 15.1683C16.7348 15.1894 16.7058 15.2012 16.6755 15.2012H14.9469Z" fill="#0F172A"/>
<path d="M33.6546 17.366C32.6593 17.366 31.8053 17.1593 31.092 16.7457C30.3787 16.323 29.8296 15.7395 29.4447 14.9952C29.0599 14.2417 28.8675 13.3733 28.8675 12.39C28.8675 11.4068 29.0599 10.5384 29.4447 9.78492C29.8296 9.03143 30.3787 8.44331 31.092 8.02062C31.8053 7.5979 32.6593 7.38657 33.6546 7.38657C34.837 7.38657 35.8038 7.67602 36.5546 8.25493C37.3151 8.82466 37.7891 9.6287 37.9766 10.6671H35.9917C35.8694 10.1433 35.6069 9.7344 35.203 9.44035C34.8089 9.1371 34.2831 8.98547 33.6261 8.98547C32.7159 8.98547 32.0025 9.28873 31.4862 9.89521C30.97 10.5017 30.7119 11.3333 30.7119 12.39C30.7119 13.4468 30.97 14.2784 31.4862 14.8849C32.0025 15.4822 32.7159 15.7809 33.6261 15.7809C34.2831 15.7809 34.8089 15.643 35.203 15.3673C35.6069 15.0825 35.8694 14.6919 35.9917 14.1957H37.9766C37.7891 15.1882 37.3151 15.9646 36.5546 16.5252C35.8038 17.0857 34.837 17.366 33.6546 17.366ZM42.4581 17.366C41.7823 17.366 41.1722 17.2144 40.628 16.9111C40.0929 16.6079 39.6657 16.1898 39.3466 15.6568C39.0369 15.1146 38.882 14.4898 38.882 13.7822C38.882 13.0747 39.0417 12.4544 39.3608 11.9214C39.68 11.3793 40.1071 10.9565 40.6419 10.6533C41.1864 10.3501 41.7965 10.1984 42.4723 10.1984C43.1387 10.1984 43.7395 10.3501 44.2746 10.6533C44.8188 10.9565 45.2459 11.3793 45.5557 11.9214C45.8748 12.4544 46.0342 13.0747 46.0342 13.7822C46.0342 14.4898 45.8748 15.1146 45.5557 15.6568C45.2459 16.1898 44.8188 16.6079 44.2746 16.9111C43.7301 17.2144 43.1245 17.366 42.4581 17.366ZM42.4581 15.836C42.9276 15.836 43.3359 15.666 43.6832 15.326C44.0305 14.9768 44.2041 14.4622 44.2041 13.7822C44.2041 13.1022 44.0305 12.5922 43.6832 12.2522C43.3359 11.903 42.9321 11.7285 42.4723 11.7285C41.9938 11.7285 41.5806 11.903 41.2333 12.2522C40.8954 12.5922 40.7266 13.1022 40.7266 13.7822C40.7266 14.4622 40.8954 14.9768 41.2333 15.326C41.5806 15.666 41.9889 15.836 42.4581 15.836ZM50.4332 17.366C49.7762 17.366 49.1897 17.2098 48.6733 16.8973C48.1572 16.5849 47.7489 16.1576 47.4485 15.6155C47.1481 15.0733 46.9981 14.4576 46.9981 13.7684C46.9981 13.0792 47.1481 12.4682 47.4485 11.9352C47.7489 11.393 48.1572 10.9703 48.6733 10.6671C49.1897 10.3547 49.7762 10.1984 50.4332 10.1984C50.959 10.1984 51.4187 10.2949 51.8132 10.4879C52.2074 10.6809 52.5265 10.952 52.7706 11.3011V7.27628H54.5726V17.2006H52.9675L52.7706 16.2219C52.5453 16.5252 52.2449 16.7917 51.8695 17.0214C51.5035 17.2511 51.0246 17.366 50.4332 17.366ZM50.8135 15.8222C51.3955 15.8222 51.8695 15.6339 52.2355 15.2571C52.6109 14.8712 52.7987 14.3795 52.7987 13.7822C52.7987 13.1849 52.6109 12.6979 52.2355 12.3211C51.8695 11.9352 51.3955 11.7422 50.8135 11.7422C50.2408 11.7422 49.7668 11.9306 49.3914 12.3074C49.016 12.6841 48.8282 13.1711 48.8282 13.7684C48.8282 14.3657 49.016 14.8573 49.3914 15.2433C49.7668 15.6293 50.2408 15.8222 50.8135 15.8222ZM59.3783 17.366C58.6744 17.366 58.0504 17.219 57.5059 16.9249C56.9617 16.6309 56.5346 16.2173 56.2248 15.6844C55.9151 15.1514 55.7602 14.5357 55.7602 13.8374C55.7602 13.1298 55.9102 12.5003 56.2106 11.949C56.5204 11.3976 56.9426 10.9703 57.4778 10.6671C58.0223 10.3547 58.6605 10.1984 59.3926 10.1984C60.0777 10.1984 60.683 10.3455 61.2088 10.6395C61.7345 10.9336 62.1426 11.3379 62.4336 11.8525C62.7339 12.3579 62.8843 12.923 62.8843 13.5479C62.8843 13.649 62.8794 13.7546 62.8701 13.8649C62.8701 13.9752 62.8655 14.0901 62.8562 14.2095H57.5483C57.5858 14.7425 57.7736 15.1606 58.1115 15.4638C58.4588 15.7671 58.8762 15.9187 59.3644 15.9187C59.7305 15.9187 60.0354 15.8406 60.2795 15.6844C60.533 15.519 60.7208 15.3076 60.8427 15.0503H62.6731C62.5415 15.4822 62.321 15.8773 62.0113 16.2357C61.7109 16.5849 61.3355 16.8606 60.8851 17.0628C60.4437 17.2649 59.9416 17.366 59.3783 17.366ZM59.3926 11.632C58.9515 11.632 58.5619 11.756 58.224 12.0041C57.8861 12.243 57.6701 12.6106 57.5764 13.1068H61.0539C61.0257 12.6566 60.857 12.2982 60.5472 12.0317C60.2374 11.7652 59.8524 11.632 59.3926 11.632ZM68.4829 17.366C67.488 17.366 66.6337 17.1593 65.9204 16.7457C65.2071 16.323 64.6581 15.7395 64.2733 14.9952C63.8882 14.2417 63.6959 13.3733 63.6959 12.39C63.6959 11.4068 63.8882 10.5384 64.2733 9.78492C64.6581 9.03143 65.2071 8.44331 65.9204 8.02062C66.6337 7.5979 67.488 7.38657 68.4829 7.38657C69.6656 7.38657 70.6324 7.67602 71.3832 8.25493C72.1434 8.82466 72.6174 9.6287 72.8052 10.6671H70.82C70.6981 10.1433 70.4352 9.7344 70.0317 9.44035C69.6375 9.1371 69.1118 8.98547 68.4547 8.98547C67.5442 8.98547 66.8309 9.28873 66.3146 9.89521C65.7985 10.5017 65.5405 11.3333 65.5405 12.39C65.5405 13.4468 65.7985 14.2784 66.3146 14.8849C66.8309 15.4822 67.5442 15.7809 68.4547 15.7809C69.1118 15.7809 69.6375 15.643 70.0317 15.3673C70.4352 15.0825 70.6981 14.6919 70.82 14.1957H72.8052C72.6174 15.1882 72.1434 15.9646 71.3832 16.5252C70.6324 17.0857 69.6656 17.366 68.4829 17.366ZM73.936 17.2006V10.3639H75.541L75.7098 11.6457C75.9633 11.2047 76.3057 10.8555 76.7377 10.5982C77.1787 10.3317 77.6951 10.1984 78.2865 10.1984V12.0593H77.7795C77.3853 12.0593 77.0332 12.119 76.7235 12.2385C76.4137 12.3579 76.1699 12.5647 75.9914 12.8587C75.8223 13.1527 75.7379 13.5617 75.7379 14.0855V17.2006H73.936ZM81.5033 17.366C80.9026 17.366 80.4098 17.2741 80.0251 17.0903C79.64 16.8973 79.3538 16.6447 79.1659 16.3322C78.9784 16.0198 78.8843 15.6752 78.8843 15.2984C78.8843 14.6644 79.1378 14.1498 79.6448 13.7546C80.1515 13.3595 80.912 13.162 81.9256 13.162H83.6995V12.9966C83.6995 12.5279 83.5633 12.1833 83.2914 11.9628C83.0192 11.7422 82.6813 11.632 82.2774 11.632C81.9114 11.632 81.5923 11.7192 81.3203 11.8939C81.0481 12.0593 80.879 12.3074 80.8134 12.6382H79.0534C79.1003 12.142 79.2694 11.7101 79.5604 11.3425C79.8608 10.9749 80.2456 10.6947 80.7147 10.5017C81.1842 10.2995 81.7096 10.1984 82.2917 10.1984C83.2866 10.1984 84.0703 10.442 84.643 10.929C85.2156 11.416 85.5017 12.1052 85.5017 12.9966V17.2006H83.9672L83.7981 16.0979C83.5918 16.4655 83.3008 16.7687 82.9251 17.0076C82.5591 17.2465 82.085 17.366 81.5033 17.366ZM81.9114 15.9876C82.4278 15.9876 82.8268 15.8222 83.1084 15.4914C83.3991 15.1606 83.5821 14.7517 83.6574 14.2647H82.1225C81.644 14.2647 81.3013 14.3519 81.095 14.5266C80.8884 14.6919 80.7852 14.8987 80.7852 15.1468C80.7852 15.4133 80.8884 15.62 81.095 15.7671C81.3013 15.9141 81.5735 15.9876 81.9114 15.9876ZM87.123 17.2006V11.8387H86.1656V10.3639H87.123V9.56438C87.123 8.73736 87.3341 8.14927 87.7564 7.80008C88.1884 7.45089 88.77 7.27628 89.5024 7.27628H90.2768V8.77873H89.784C89.4743 8.77873 89.2534 8.83846 89.1222 8.9579C88.9909 9.07736 88.9249 9.27951 88.9249 9.56438V10.3639H90.4317V11.8387H88.9249V17.2006H87.123ZM94.5481 17.2006C93.8157 17.2006 93.2292 17.026 92.7882 16.6768C92.3468 16.3276 92.1263 15.7074 92.1263 14.816V11.8387H90.9296V10.3639H92.1263L92.3374 8.53062H93.9286V10.3639H95.8149V11.8387H93.9286V14.8298C93.9286 15.1606 93.9987 15.3903 94.1397 15.519C94.2897 15.6384 94.5432 15.6982 94.8999 15.6982H95.7729V17.2006H94.5481ZM100.154 17.366C99.4505 17.366 98.8262 17.219 98.2817 16.9249C97.7375 16.6309 97.3103 16.2173 97.0006 15.6844C96.6908 15.1514 96.536 14.5357 96.536 13.8374C96.536 13.1298 96.6863 12.5003 96.9864 11.949C97.2961 11.3976 97.7187 10.9703 98.2535 10.6671C98.798 10.3547 99.4363 10.1984 100.168 10.1984C100.853 10.1984 101.459 10.3455 101.985 10.6395C102.51 10.9336 102.919 11.3379 103.21 11.8525C103.51 12.3579 103.66 12.923 103.66 13.5479C103.66 13.649 103.656 13.7546 103.646 13.8649C103.646 13.9752 103.641 14.0901 103.632 14.2095H98.324C98.3615 14.7425 98.5494 15.1606 98.8873 15.4638C99.2345 15.7671 99.6523 15.9187 100.14 15.9187C100.506 15.9187 100.811 15.8406 101.055 15.6844C101.309 15.519 101.497 15.3076 101.618 15.0503H103.449C103.317 15.4822 103.097 15.8773 102.787 16.2357C102.487 16.5849 102.111 16.8606 101.661 17.0628C101.219 17.2649 100.717 17.366 100.154 17.366ZM100.168 11.632C99.7273 11.632 99.3377 11.756 98.9998 12.0041C98.6619 12.243 98.4459 12.6106 98.3521 13.1068H101.83C101.802 12.6566 101.633 12.2982 101.323 12.0317C101.013 11.7652 100.628 11.632 100.168 11.632ZM104.753 17.2006V10.3639H106.358L106.527 11.6457C106.781 11.2047 107.123 10.8555 107.555 10.5982C107.996 10.3317 108.513 10.1984 109.104 10.1984V12.0593H108.597C108.203 12.0593 107.851 12.119 107.541 12.2385C107.231 12.3579 106.987 12.5647 106.809 12.8587C106.64 13.1527 106.556 13.5617 106.556 14.0855V17.2006H104.753ZM112.8 17.366C112.18 17.366 111.635 17.2695 111.166 17.0765C110.697 16.8744 110.321 16.5987 110.04 16.2495C109.758 15.9003 109.589 15.496 109.533 15.0365H111.349C111.406 15.303 111.556 15.5327 111.8 15.7257C112.053 15.9095 112.377 16.0014 112.771 16.0014C113.166 16.0014 113.452 15.9233 113.63 15.7671C113.818 15.6109 113.912 15.4317 113.912 15.2295C113.912 14.9355 113.78 14.7379 113.518 14.6368C113.255 14.5266 112.889 14.4209 112.419 14.3198C112.119 14.2555 111.814 14.1774 111.504 14.0855C111.194 13.9936 110.908 13.8787 110.645 13.7409C110.392 13.5938 110.185 13.4101 110.026 13.1895C109.866 12.9598 109.787 12.6795 109.787 12.3487C109.787 11.7422 110.03 11.2322 110.519 10.8187C111.016 10.4052 111.711 10.1984 112.602 10.1984C113.428 10.1984 114.085 10.3868 114.573 10.7636C115.071 11.1403 115.366 11.6595 115.461 12.3211H113.757C113.653 11.8157 113.264 11.563 112.588 11.563C112.25 11.563 111.988 11.6273 111.8 11.756C111.622 11.8847 111.532 12.0455 111.532 12.2385C111.532 12.4406 111.668 12.6014 111.941 12.7209C112.213 12.8403 112.574 12.9506 113.025 13.0517C113.513 13.162 113.959 13.286 114.362 13.4238C114.775 13.5525 115.104 13.75 115.348 14.0166C115.592 14.2738 115.714 14.646 115.714 15.133C115.723 15.5557 115.611 15.9371 115.376 16.2771C115.141 16.6171 114.804 16.8836 114.362 17.0765C113.921 17.2695 113.4 17.366 112.8 17.366Z" fill="#0F172A"/>
</svg>
