<svg width="555" height="422" viewBox="0 0 555 422" fill="none" xmlns="http://www.w3.org/2000/svg">
<path d="M478.954 1.41043H366.126V114.245H478.954V1.41043Z" fill="#F8BFBF" stroke="#1E293B" stroke-width="2" stroke-linecap="round" stroke-linejoin="round"/>
<path d="M478.954 39.0406H403.472V114.245H478.954V39.0406Z" fill="#F8EAC7"/>
<path d="M458.081 114.245H449.337M433.033 114.245H424.289" stroke="#1E293B" stroke-width="2" stroke-linecap="round" stroke-linejoin="round"/>
<path d="M403.472 93.4267V84.7385M403.472 70.2957V61.6075" stroke="#1E293B" stroke-width="2" stroke-linecap="round" stroke-linejoin="round"/>
<path d="M450.239 39.0406H458.983M427.11 39.0406H435.854" stroke="#1E293B" stroke-width="2" stroke-linecap="round" stroke-linejoin="round"/>
<path d="M474.441 39.0406H478.954" stroke="#1E293B" stroke-width="2" stroke-linecap="round" stroke-linejoin="round"/>
<path d="M478.954 93.4267V84.7385M478.954 68.4904V59.8021" stroke="#1E293B" stroke-width="2" stroke-linecap="round" stroke-linejoin="round"/>
<path d="M478.954 76.6144H441.213V114.245H478.954V76.6144Z" fill="#BFE3F8"/>
<path d="M463.102 114.245H457.065" stroke="#1E293B" stroke-width="2" stroke-linecap="round" stroke-linejoin="round"/>
<path d="M441.213 100.422V94.3858" stroke="#1E293B" stroke-width="2" stroke-linecap="round" stroke-linejoin="round"/>
<path d="M458.758 76.6144H464.794" stroke="#1E293B" stroke-width="2" stroke-linecap="round" stroke-linejoin="round"/>
<path d="M474.441 76.6144H478.954" stroke="#1E293B" stroke-width="2" stroke-linecap="round" stroke-linejoin="round"/>
<path d="M478.954 98.4479V92.4112" stroke="#1E293B" stroke-width="2" stroke-linecap="round" stroke-linejoin="round"/>
<path d="M478.954 1.41043H366.126V114.245H478.954V1.41043Z" stroke="#1E293B" stroke-width="2" stroke-linecap="round" stroke-linejoin="round"/>
<path d="M421.976 87.7286H94.7754V388.996H421.976V87.7286Z" fill="#1E293B" stroke="#1E293B" stroke-width="2" stroke-linecap="round" stroke-linejoin="round"/>
<path d="M414.078 79.8302H86.8774V381.098H414.078V79.8302Z" fill="#FAF6EA" stroke="#1E293B" stroke-width="2" stroke-linecap="round" stroke-linejoin="round"/>
<path d="M414.078 79.8302H86.8774V109.167H414.078V79.8302Z" fill="#FAF6EA" stroke="#1E293B" stroke-width="2" stroke-linecap="round" stroke-linejoin="round"/>
<path d="M396.59 98.4479C398.771 98.4479 400.539 96.6797 400.539 94.4987C400.539 92.3176 398.771 90.5495 396.59 90.5495C394.409 90.5495 392.641 92.3176 392.641 94.4987C392.641 96.6797 394.409 98.4479 396.59 98.4479Z" fill="#F8BFBF" stroke="#1E293B" stroke-width="2" stroke-linecap="round" stroke-linejoin="round"/>
<path d="M380.794 98.4479C382.975 98.4479 384.743 96.6797 384.743 94.4987C384.743 92.3176 382.975 90.5495 380.794 90.5495C378.613 90.5495 376.845 92.3176 376.845 94.4987C376.845 96.6797 378.613 98.4479 380.794 98.4479Z" fill="#F8EAC7" stroke="#1E293B" stroke-width="2" stroke-linecap="round" stroke-linejoin="round"/>
<path d="M364.998 98.4479C367.179 98.4479 368.947 96.6797 368.947 94.4987C368.947 92.3176 367.179 90.5495 364.998 90.5495C362.817 90.5495 361.049 92.3176 361.049 94.4987C361.049 96.6797 362.817 98.4479 364.998 98.4479Z" fill="#C8F5BE" stroke="#1E293B" stroke-width="2" stroke-linecap="round" stroke-linejoin="round"/>
<path d="M481.098 170.662C513.987 170.662 540.614 160.281 540.614 147.531C540.614 141.551 534.804 136.135 525.27 132.016C514.382 136.699 498.643 139.632 481.154 139.632H481.436C457.122 139.632 437.433 137.376 437.433 132.016C437.433 127.221 457.122 124.4 481.436 124.4H481.098C498.586 124.4 514.382 127.333 525.213 132.016C534.747 127.898 540.558 122.482 540.558 116.501C540.558 103.751 513.931 93.3703 481.041 93.3703" stroke="#1E293B" stroke-width="2" stroke-linecap="round" stroke-linejoin="round"/>
<path d="M481.098 93.3703H481.38" stroke="#1E293B" stroke-width="2" stroke-linecap="round" stroke-linejoin="round"/>
<path d="M489.842 180.478C489.842 175.175 485.554 170.887 480.252 170.887" stroke="#1E293B" stroke-width="2" stroke-linecap="round" stroke-linejoin="round"/>
<path d="M489.842 161.297C489.842 166.6 485.554 170.887 480.252 170.887" stroke="#1E293B" stroke-width="2" stroke-linecap="round" stroke-linejoin="round"/>
<path d="M58.9525 90.0981L75.7074 73.2858" stroke="#1E293B" stroke-width="2" stroke-linecap="round" stroke-linejoin="round"/>
<path d="M49.3058 66.8543H72.9996" stroke="#1E293B" stroke-width="2" stroke-linecap="round" stroke-linejoin="round"/>
<path d="M58.9525 43.6104L75.7074 60.4227" stroke="#1E293B" stroke-width="2" stroke-linecap="round" stroke-linejoin="round"/>
<path d="M82.1387 34.0195V57.7147" stroke="#1E293B" stroke-width="2" stroke-linecap="round" stroke-linejoin="round"/>
<path d="M105.381 43.6104L88.6262 60.4227" stroke="#1E293B" stroke-width="2" stroke-linecap="round" stroke-linejoin="round"/>
<path d="M553.646 198.306H271.012V420.59H553.646V198.306Z" fill="#1E293B" stroke="#1E293B" stroke-width="2" stroke-linecap="round" stroke-linejoin="round"/>
<path d="M545.748 190.408H263.115V412.691H545.748V190.408Z" fill="#FAF6EA" stroke="#1E293B" stroke-width="2" stroke-linecap="round" stroke-linejoin="round"/>
<path d="M545.748 190.408H263.115V219.745H545.748V190.408Z" fill="#FAF6EA" stroke="#1E293B" stroke-width="2" stroke-linecap="round" stroke-linejoin="round"/>
<path d="M528.203 209.025C530.384 209.025 532.152 207.257 532.152 205.076C532.152 202.895 530.384 201.127 528.203 201.127C526.023 201.127 524.255 202.895 524.255 205.076C524.255 207.257 526.023 209.025 528.203 209.025Z" fill="#F8BFBF" stroke="#1E293B" stroke-width="2" stroke-linecap="round" stroke-linejoin="round"/>
<path d="M512.408 209.025C514.589 209.025 516.357 207.257 516.357 205.076C516.357 202.895 514.589 201.127 512.408 201.127C510.227 201.127 508.459 202.895 508.459 205.076C508.459 207.257 510.227 209.025 512.408 209.025Z" fill="#F8EAC7" stroke="#1E293B" stroke-width="2" stroke-linecap="round" stroke-linejoin="round"/>
<path d="M496.612 209.025C498.793 209.025 500.561 207.257 500.561 205.076C500.561 202.895 498.793 201.127 496.612 201.127C494.431 201.127 492.663 202.895 492.663 205.076C492.663 207.257 494.431 209.025 496.612 209.025Z" fill="#C8F5BE" stroke="#1E293B" stroke-width="2" stroke-linecap="round" stroke-linejoin="round"/>
<path d="M459.717 260.76H349.315V371.168H459.717V260.76Z" fill="#FAF6EA" stroke="#1E293B" stroke-width="2" stroke-linecap="round" stroke-linejoin="round"/>
<path d="M467.728 252.805H452.609V267.925H467.728V252.805Z" fill="#FFFDF7" stroke="#1E293B" stroke-width="2" stroke-linecap="round" stroke-linejoin="round"/>
<path d="M467.728 363.27H452.609V378.39H467.728V363.27Z" fill="#FFFDF7" stroke="#1E293B" stroke-width="2" stroke-linecap="round" stroke-linejoin="round"/>
<path d="M356.536 252.805H341.417V267.925H356.536V252.805Z" fill="#FFFDF7" stroke="#1E293B" stroke-width="2" stroke-linecap="round" stroke-linejoin="round"/>
<path d="M356.536 363.27H341.417V378.39H356.536V363.27Z" fill="#FFFDF7" stroke="#1E293B" stroke-width="2" stroke-linecap="round" stroke-linejoin="round"/>
<path d="M404.601 357.29C427.314 357.29 445.726 338.876 445.726 316.162C445.726 293.447 427.314 275.033 404.601 275.033C381.887 275.033 363.475 293.447 363.475 316.162C363.475 338.876 381.887 357.29 404.601 357.29Z" fill="#BFE3F8"/>
<path d="M404.601 357.233C402.062 357.233 399.523 357.008 397.041 356.556C399.467 357.008 402.006 357.233 404.601 357.233ZM404.601 357.233C406.575 357.233 408.55 357.12 410.468 356.838M431.679 347.078C435.064 344.088 437.941 340.59 440.254 336.641C437.885 340.59 435.064 344.088 431.679 347.078ZM376.055 345.781C372.84 342.678 370.132 339.123 368.101 335.118C370.188 339.067 372.783 342.678 376.055 345.781ZM363.644 312.212C364.095 307.699 365.224 303.298 367.142 299.18C365.224 303.298 364.039 307.643 363.644 312.212ZM442.059 299.18C443.921 303.298 445.106 307.699 445.557 312.212C445.049 307.643 443.865 303.298 442.059 299.18ZM429.818 283.722C426.264 280.957 422.371 278.813 418.14 277.347C422.371 278.813 426.32 280.957 429.818 283.722ZM382.373 281.521C386.21 279.095 390.384 277.29 394.785 276.218C390.441 277.29 386.266 279.039 382.373 281.521Z" stroke="#1E293B" stroke-width="2" stroke-linecap="round" stroke-linejoin="round"/>
<path d="M509.643 395.484V380.421" stroke="#1E293B" stroke-width="2" stroke-linecap="round" stroke-linejoin="round"/>
<path d="M491.591 385.047L504.679 377.543" stroke="#1E293B" stroke-width="2" stroke-linecap="round" stroke-linejoin="round"/>
<path d="M491.591 364.172L504.679 371.676" stroke="#1E293B" stroke-width="2" stroke-linecap="round" stroke-linejoin="round"/>
<path d="M509.643 353.735V368.799" stroke="#1E293B" stroke-width="2" stroke-linecap="round" stroke-linejoin="round"/>
<path d="M527.808 364.172L514.664 371.676" stroke="#1E293B" stroke-width="2" stroke-linecap="round" stroke-linejoin="round"/>
<path d="M527.808 385.047L514.664 377.543" stroke="#1E293B" stroke-width="2" stroke-linecap="round" stroke-linejoin="round"/>
<path d="M105.158 334.043C140.365 334.043 168.906 305.5 168.906 270.291C168.906 235.083 140.365 206.54 105.158 206.54C69.9512 206.54 41.4103 235.083 41.4103 270.291C41.4103 305.5 69.9512 334.043 105.158 334.043Z" fill="#BFE3F8" stroke="#1E293B" stroke-width="2" stroke-linecap="round" stroke-linejoin="round"/>
<path d="M41.4103 270.291C41.4103 235.087 69.9558 206.54 105.158 206.54C140.36 206.54 168.906 235.087 168.906 270.291" fill="#C8F5BE"/>
<path d="M41.4103 270.291C41.4103 235.087 69.9558 206.54 105.158 206.54C140.36 206.54 168.906 235.087 168.906 270.291" stroke="#1E293B" stroke-width="2" stroke-linecap="round" stroke-linejoin="round"/>
<path d="M105.158 291.561C140.365 291.561 168.906 282.038 168.906 270.291C168.906 258.545 140.365 249.022 105.158 249.022C69.9512 249.022 41.4103 258.545 41.4103 270.291C41.4103 282.038 69.9512 291.561 105.158 291.561Z" fill="#F8BFBF" stroke="#1E293B" stroke-width="2" stroke-linecap="round" stroke-linejoin="round"/>
<path d="M105.214 334.043C103.353 334.043 101.604 333.366 99.8551 332.068M99.8551 332.068C98.1627 330.771 96.5831 328.852 95.06 326.426C96.5831 328.909 98.2191 330.771 99.8551 332.068ZM125.975 283.549C126.257 279.205 126.426 274.748 126.426 270.291M83.89 270.404V270.291C83.89 265.835 84.0593 261.378 84.3413 257.09M125.072 248.12C124.508 243.493 123.775 239.093 122.872 234.974M110.517 208.515C112.153 209.812 113.789 211.731 115.313 214.213C113.789 211.731 112.153 209.869 110.517 208.515ZM110.517 208.515C108.769 207.161 107.02 206.484 105.214 206.484C105.158 206.484 105.158 206.484 105.102 206.484M119.149 318.302C120.559 314.579 121.857 310.291 122.872 305.552C121.8 310.235 120.559 314.579 119.149 318.302ZM87.5005 305.665C86.5979 301.547 85.8645 297.146 85.2439 292.52C85.8081 297.146 86.5415 301.547 87.5005 305.665ZM87.4441 235.087C88.4595 230.348 89.7571 226.06 91.1674 222.337C89.7571 226.06 88.4595 230.405 87.4441 235.087Z" stroke="#1E293B" stroke-width="2" stroke-linecap="round" stroke-linejoin="round"/>
<path d="M105.158 334.043V206.54" stroke="#1E293B" stroke-width="2" stroke-linecap="round" stroke-linejoin="round"/>
<path d="M403.472 49.4778V39.0406H413.232H403.472V49.4778Z" stroke="#1E293B" stroke-width="2" stroke-miterlimit="10" stroke-linecap="round" stroke-linejoin="round"/>
<path d="M441.213 85.6976V76.6144H449.168H441.213V85.6976Z" stroke="#1E293B" stroke-width="2" stroke-miterlimit="10" stroke-linecap="round" stroke-linejoin="round"/>
<path d="M441.213 109.167V114.245" stroke="#1E293B" stroke-width="2" stroke-linecap="round" stroke-linejoin="round"/>
</svg>
