<svg width="68" height="48" viewBox="0 0 68 48" fill="none" xmlns="http://www.w3.org/2000/svg">
<path d="M63.2646 25.9456V44H45.2103C45.2103 34.0288 53.2934 25.9456 63.2646 25.9456Z" fill="#1E293B"/>
<path d="M45.2103 8H27.1559V44H45.2103V8Z" fill="#1E293B"/>
<path d="M3.00218 19.8572C3 19.9289 3 20.0007 3 20.0725V19.855H3.00218V19.8572Z" fill="#1E293B"/>
<path d="M27.145 44H3V20.0725C3 20.0007 3 19.9289 3.00218 19.8572L27.145 44Z" fill="#1E293B"/>
<path d="M27.145 20.0725C27.145 26.6678 21.8549 32.0276 15.2879 32.1428L3.00218 19.8572C3.11746 13.2902 8.47722 8 15.0725 8C21.6678 8 27.145 13.4054 27.145 20.0725Z" fill="#1E293B"/>
<path d="M45.2103 44H63.2646V25.9456C53.2934 25.9456 45.2103 34.0288 45.2103 44ZM45.2103 44V8H27.1559V44H45.2103ZM3.00218 19.8572C3 19.9289 3 20.0007 3 20.0725M3.00218 19.8572V19.855H3V20.0725M3.00218 19.8572L27.145 44H3V20.0725M3.00218 19.8572L15.2879 32.1428C21.8549 32.0276 27.145 26.6678 27.145 20.0725C27.145 13.4054 21.6678 8 15.0725 8C8.47722 8 3.11746 13.2902 3.00218 19.8572Z" stroke="#1E293B" stroke-width="2" stroke-linejoin="round"/>
<path d="M61.2646 23.9456V42H43.2103C43.2103 32.0288 51.2934 23.9456 61.2646 23.9456Z" fill="#FAF6EA"/>
<path d="M43.2103 6H25.1559V42H43.2103V6Z" fill="#FAF6EA"/>
<path d="M1.00218 17.8572C1 17.9289 1 18.0007 1 18.0725V17.855H1.00218V17.8572Z" fill="#FAF6EA"/>
<path d="M25.145 42H1V18.0725C1 18.0007 1 17.9289 1.00218 17.8572L25.145 42Z" fill="#FAF6EA"/>
<path d="M25.145 18.0725C25.145 24.6678 19.8549 30.0276 13.2879 30.1428L1.00218 17.8572C1.11746 11.2902 6.47722 6 13.0725 6C19.6678 6 25.145 11.4054 25.145 18.0725Z" fill="#FAF6EA"/>
<path d="M43.2103 42H61.2646V23.9456C51.2934 23.9456 43.2103 32.0288 43.2103 42ZM43.2103 42V6H25.1559V42H43.2103ZM1.00218 17.8572C1 17.9289 1 18.0007 1 18.0725M1.00218 17.8572V17.855H1V18.0725M1.00218 17.8572L25.145 42H1V18.0725M1.00218 17.8572L13.2879 30.1428C19.8549 30.0276 25.145 24.6678 25.145 18.0725C25.145 11.4054 19.6678 6 13.0725 6C6.47722 6 1.11746 11.2902 1.00218 17.8572Z" stroke="#1E293B" stroke-width="2" stroke-linejoin="round"/>
</svg>
