<svg width="105" height="18" viewBox="0 0 105 18" fill="none" xmlns="http://www.w3.org/2000/svg">
<path d="M8.855 17.4064V14.035C12.495 14.035 15.295 10.4916 13.9125 6.74175C13.3875 5.34846 12.2675 4.23039 10.85 3.73156C7.035 2.37267 3.43 5.12485 3.43 8.70267H0C0 3.00911 5.6 -1.42876 11.6725 0.428952C14.3325 1.2374 16.4325 3.31873 17.255 5.9161C19.145 11.9021 14.6475 17.4064 8.855 17.4064Z" fill="#0F172A"/>
<path fill-rule="evenodd" clip-rule="evenodd" d="M5.4425 10.6808H8.855V14.035L5.4425 14.035V10.6808ZM2.8175 16.6152V14.035H5.4425V16.6152H2.8175ZM0.6125 11.8849H2.8175V14.035H0.6125V11.8849Z" fill="#0F172A"/>
<path d="M31.5 5.03884C30.485 4.3508 29.225 3.98958 27.755 3.98958H24.5525V13.9834H27.755C29.225 13.9834 30.485 13.6222 31.5 12.8825C32.06 12.5041 32.4975 11.9537 32.795 11.2828C33.0925 10.612 33.25 9.82074 33.25 8.92628C33.25 8.04903 33.0925 7.25778 32.795 6.58694C32.4975 5.9333 32.06 5.40006 31.5 5.03884ZM26.425 5.69248H27.44C28.56 5.69248 29.4875 5.9161 30.1875 6.32892C30.9575 6.79335 31.36 7.67061 31.36 8.92628C31.36 10.2336 30.9575 11.1452 30.1875 11.6441C29.5225 12.0741 28.595 12.2977 27.4575 12.2977H26.4425V5.69248H26.425Z" fill="#0F172A"/>
<path d="M35.49 3.86917C35.175 3.86917 34.9125 3.97237 34.7025 4.17879C34.4925 4.3852 34.37 4.64322 34.37 4.93563C34.37 5.24525 34.475 5.50327 34.7025 5.70968C34.9125 5.9161 35.175 6.0365 35.49 6.0365C35.805 6.0365 36.0675 5.9333 36.2775 5.70968C36.4875 5.50327 36.61 5.22805 36.61 4.93563C36.61 4.62601 36.505 4.368 36.2775 4.17879C36.0675 3.97237 35.7875 3.86917 35.49 3.86917Z" fill="#0F172A"/>
<path d="M34.5625 6.94816H36.365V14.0006H34.5625V6.94816ZM42.9275 7.533C42.385 7.05137 41.7725 6.77615 41.125 6.77615C40.1275 6.77615 39.305 7.12017 38.6575 7.77381C38.01 8.42745 37.695 9.28751 37.695 10.3024C37.695 11.3 38.01 12.1429 38.6575 12.8309C39.305 13.4846 40.1275 13.8286 41.125 13.8286C41.825 13.8286 42.42 13.6394 42.91 13.261V13.433C42.91 14.0178 42.7525 14.465 42.4375 14.7919C42.1225 15.1015 41.685 15.2563 41.1425 15.2563C40.3025 15.2563 39.795 14.9295 39.1475 14.0866L37.9225 15.2391L37.9575 15.2907C38.22 15.6519 38.6225 16.0131 39.165 16.3571C39.7075 16.7012 40.3725 16.8732 41.1775 16.8732C42.245 16.8732 43.12 16.5464 43.75 15.9099C44.3975 15.2735 44.7125 14.4134 44.7125 13.347V6.94816H42.945V7.533H42.9275ZM42.455 11.6957C42.14 12.0397 41.7375 12.2117 41.2125 12.2117C40.6875 12.2117 40.285 12.0397 39.9875 11.6957C39.6725 11.3516 39.515 10.8872 39.515 10.3196C39.515 9.75194 39.6725 9.27031 39.9875 8.92628C40.3025 8.58226 40.705 8.39305 41.2125 8.39305C41.7375 8.39305 42.14 8.56506 42.455 8.92628C42.77 9.27031 42.9275 9.75194 42.9275 10.3196C42.9275 10.8872 42.7525 11.3516 42.455 11.6957ZM46.235 6.94816H48.0375V14.0006H46.235V6.94816Z" fill="#0F172A"/>
<path d="M47.1625 3.86917C46.8475 3.86917 46.585 3.97237 46.375 4.17879C46.165 4.3852 46.0425 4.64322 46.0425 4.93563C46.0425 5.24525 46.1475 5.50327 46.375 5.70968C46.585 5.9161 46.8475 6.0365 47.1625 6.0365C47.4775 6.0365 47.74 5.9333 47.95 5.70968C48.16 5.50327 48.2825 5.22805 48.2825 4.93563C48.2825 4.62601 48.1775 4.368 47.95 4.17879C47.74 3.97237 47.46 3.86917 47.1625 3.86917Z" fill="#0F172A"/>
<path d="M50.225 5.05604V6.96536H49.1925V8.58226H50.225V11.5064C50.225 12.4181 50.4175 13.0717 50.785 13.4502C51.1525 13.8286 51.8 14.0178 52.7275 14.0178C53.025 14.0178 53.3225 14.0006 53.6025 13.9834H53.69V12.3665L53.0775 12.4009C52.64 12.4009 52.36 12.3321 52.22 12.1773C52.08 12.0225 52.01 11.7129 52.01 11.2484V8.56506H53.69V6.94816H52.01V5.05604H50.225ZM62.125 3.98957H63.9275V13.9834H62.125V3.98957ZM82.145 11.472C81.83 11.8333 81.4975 12.1429 81.235 12.2977C80.99 12.4525 80.675 12.5385 80.3075 12.5385C79.7825 12.5385 79.345 12.3493 78.995 11.9537C78.645 11.5581 78.47 11.0592 78.47 10.4572C78.47 9.85514 78.645 9.35631 78.9775 8.97789C79.3275 8.58226 79.7475 8.39305 80.2725 8.39305C80.85 8.39305 81.4625 8.75427 81.9875 9.35631L83.1775 8.23824C82.4075 7.24058 81.41 6.77615 80.22 6.77615C79.2225 6.77615 78.365 7.13737 77.665 7.82542C76.965 8.51346 76.615 9.40791 76.615 10.4572C76.615 11.5064 76.965 12.3837 77.665 13.0889C78.365 13.7942 79.2225 14.1382 80.22 14.1382C81.5325 14.1382 82.5825 13.5878 83.2825 12.5729L82.145 11.472ZM89.5475 7.92862C89.285 7.5846 88.935 7.29218 88.515 7.08577C88.0775 6.87936 87.5875 6.77615 87.0275 6.77615C86.0125 6.77615 85.19 7.13737 84.5775 7.85982C83.9825 8.58226 83.6675 9.45952 83.6675 10.5088C83.6675 11.5753 84 12.4525 84.665 13.1405C85.3125 13.8114 86.205 14.1554 87.2725 14.1554C88.48 14.1554 89.495 13.6738 90.23 12.7105L90.265 12.6589L89.0925 11.5408C88.9875 11.6785 88.83 11.8161 88.69 11.9537C88.515 12.1257 88.34 12.2461 88.165 12.3321C87.9025 12.4697 87.5875 12.5213 87.255 12.5213C86.7475 12.5213 86.345 12.3837 86.03 12.0913C85.7325 11.8333 85.5575 11.472 85.5225 11.0248H90.3L90.3175 10.3712C90.3175 9.90675 90.2475 9.47672 90.125 9.06389C90.0025 8.66827 89.81 8.28984 89.5475 7.92862ZM85.61 9.59713C85.6975 9.2531 85.855 8.97789 86.0825 8.75427C86.3275 8.51346 86.6425 8.39305 87.0275 8.39305C87.465 8.39305 87.7975 8.51346 88.025 8.75427C88.235 8.97789 88.3575 9.25311 88.3925 9.57993H85.61V9.59713ZM96.4775 7.48139C95.935 7.01696 95.1825 6.79335 94.2375 6.79335C93.6425 6.79335 93.0825 6.93096 92.575 7.17177C92.1025 7.41259 91.6475 7.79101 91.35 8.30704L91.3675 8.32425L92.5225 9.40791C92.995 8.66827 93.52 8.41025 94.22 8.41025C94.605 8.41025 94.9025 8.51346 95.1475 8.70267C95.3925 8.89188 95.4975 9.1499 95.4975 9.45952V9.80354C95.0425 9.66593 94.605 9.59713 94.1675 9.59713C93.275 9.59713 92.54 9.80354 91.9975 10.2164C91.455 10.6292 91.175 11.2312 91.175 11.9709C91.175 12.6245 91.4025 13.175 91.875 13.5706C92.3475 13.949 92.925 14.1554 93.6075 14.1554C94.29 14.1554 94.9375 13.8802 95.515 13.4158V14.0006H97.2825V9.45952C97.3175 8.61667 97.0375 7.94582 96.4775 7.48139ZM93.275 11.3C93.485 11.1624 93.765 11.0936 94.1325 11.0936C94.57 11.0936 95.025 11.1796 95.4975 11.3516V12.0397C95.1125 12.4009 94.5875 12.5729 93.94 12.5729C93.625 12.5729 93.38 12.5041 93.2225 12.3665C93.065 12.2289 92.9775 12.0741 92.9775 11.8505C92.9775 11.6269 93.0825 11.4376 93.275 11.3ZM104.247 7.619C103.74 7.06857 103.04 6.79335 102.147 6.79335C101.43 6.79335 100.852 6.99976 100.415 7.39539V6.96536H98.6475V14.0178H100.45V10.1132C100.45 9.57992 100.572 9.1499 100.835 8.85748C101.097 8.54786 101.43 8.41025 101.902 8.41025C102.305 8.41025 102.62 8.54786 102.847 8.80588C103.075 9.08109 103.197 9.44232 103.197 9.90675V13.9834H105V9.90675C105 8.94349 104.755 8.16944 104.247 7.619ZM59.8675 7.48139C59.325 7.01696 58.5725 6.79335 57.6275 6.79335C57.0325 6.79335 56.4725 6.93096 55.965 7.17177C55.4925 7.41259 55.0375 7.79101 54.74 8.30704L54.7575 8.32425L55.9125 9.40791C56.385 8.66827 56.91 8.41025 57.61 8.41025C57.995 8.41025 58.2925 8.51346 58.5375 8.70267C58.7825 8.89188 58.8875 9.1499 58.8875 9.45952V9.80354C58.4325 9.66593 57.995 9.59713 57.5575 9.59713C56.665 9.59713 55.93 9.80354 55.3875 10.2164C54.845 10.6292 54.565 11.2312 54.565 11.9709C54.565 12.6245 54.7925 13.175 55.265 13.5706C55.7375 13.949 56.315 14.1554 56.9975 14.1554C57.68 14.1554 58.3275 13.8802 58.905 13.4158V14.0006H60.6725V9.45952C60.69 8.61667 60.41 7.94582 59.8675 7.48139ZM56.665 11.3C56.875 11.1624 57.155 11.0936 57.5225 11.0936C57.96 11.0936 58.415 11.1796 58.8875 11.3516V12.0397C58.5025 12.4009 57.9775 12.5729 57.33 12.5729C57.015 12.5729 56.77 12.5041 56.6125 12.3665C56.455 12.2289 56.3675 12.0741 56.3675 11.8505C56.3675 11.6269 56.455 11.4376 56.665 11.3ZM70.4725 14.1382C67.585 14.1382 65.2225 11.8333 65.2225 8.97789C65.2225 6.12251 67.5675 3.81756 70.4725 3.81756C73.36 3.81756 75.7225 6.12251 75.7225 8.97789C75.7225 11.8333 73.36 14.1382 70.4725 14.1382ZM70.4725 5.65808C68.6 5.65808 67.0775 7.15457 67.0775 8.99509C67.0775 10.8356 68.6 12.3321 70.4725 12.3321C72.345 12.3321 73.8675 10.8356 73.8675 8.99509C73.8675 7.15457 72.345 5.65808 70.4725 5.65808Z" fill="#0F172A"/>
</svg>
