<svg width="20" height="21" viewBox="0 0 20 21" fill="none" xmlns="http://www.w3.org/2000/svg">
<path fill-rule="evenodd" clip-rule="evenodd" d="M10.1423 2.5C5.63982 2.5 2 6.16665 2 10.7028C2 14.3288 4.33216 17.3981 7.56748 18.4844C7.97198 18.5661 8.12014 18.3079 8.12014 18.0908C8.12014 17.9006 8.10681 17.2488 8.10681 16.5696C5.84182 17.0586 5.37015 15.5918 5.37015 15.5918C5.00615 14.6411 4.46682 14.3968 4.46682 14.3968C3.72549 13.8943 4.52082 13.8943 4.52082 13.8943C5.34315 13.9486 5.77465 14.7363 5.77465 14.7363C6.50248 15.9856 7.67531 15.6326 8.14714 15.4153C8.21447 14.8856 8.43031 14.5189 8.65947 14.3153C6.85298 14.1251 4.95232 13.419 4.95232 10.2681C4.95232 9.3718 5.27565 8.63847 5.78798 8.06814C5.70715 7.86448 5.42399 7.02231 5.86898 5.89515C5.86898 5.89515 6.55648 5.67782 8.10664 6.73715C8.77032 6.55759 9.45476 6.46625 10.1423 6.46548C10.8298 6.46548 11.5306 6.56065 12.1778 6.73715C13.7281 5.67782 14.4156 5.89515 14.4156 5.89515C14.8606 7.02231 14.5773 7.86448 14.4964 8.06814C15.0223 8.63847 15.3323 9.3718 15.3323 10.2681C15.3323 13.419 13.4316 14.1115 11.6116 14.3153C11.9083 14.5733 12.1643 15.0621 12.1643 15.8363C12.1643 16.9363 12.151 17.8191 12.151 18.0906C12.151 18.3079 12.2993 18.5661 12.7036 18.4846C15.9389 17.3979 18.2711 14.3288 18.2711 10.7028C18.2844 6.16665 14.6313 2.5 10.1423 2.5Z" fill="#1E293B"/>
</svg>
