<svg width="20" height="21" viewBox="0 0 20 21" fill="none" xmlns="http://www.w3.org/2000/svg">
<path d="M17.892 7.08928C17.892 7.08928 17.7254 5.91294 17.2122 5.39642C16.5623 4.71661 15.8359 4.71327 15.5026 4.67329C13.1166 4.5 9.5343 4.5 9.5343 4.5H9.52763C9.52763 4.5 5.94529 4.5 3.55929 4.67329C3.22605 4.71327 2.49958 4.71661 1.84976 5.39642C1.33657 5.91294 1.17329 7.08928 1.17329 7.08928C1.17329 7.08928 1 8.47223 1 9.85185V11.1448C1 12.5244 1.16995 13.9074 1.16995 13.9074C1.16995 13.9074 1.33657 15.0837 1.84643 15.6003C2.49625 16.2801 3.34935 16.2567 3.72924 16.33C5.09553 16.46 9.53096 16.5 9.53096 16.5C9.53096 16.5 13.1166 16.4933 15.5026 16.3234C15.8359 16.2834 16.5623 16.2801 17.2122 15.6003C17.7254 15.0837 17.892 13.9074 17.892 13.9074C17.892 13.9074 18.0619 12.5278 18.0619 11.1448V9.85185C18.0619 8.47223 17.892 7.08928 17.892 7.08928ZM7.76812 12.7144V7.91905L12.3768 10.325L7.76812 12.7144Z" fill="#1E293B"/>
</svg>
