<svg width="110" height="96" viewBox="0 0 110 96" fill="none" xmlns="http://www.w3.org/2000/svg">
<path d="M10.9099 93.5255L19.3453 78.9045L26.8879 65.8519L46.5902 31.7283L55.0315 46.3493L43.7705 65.8519L36.2338 78.9045H107.618L99.1766 93.5314H10.9099V93.5255Z" fill="#DEC6FF" stroke="#1E293B" stroke-width="3" stroke-linecap="round" stroke-linejoin="round"/>
<path d="M2.46857 78.9045L10.0052 65.8519L38.1489 17.1072L46.5961 2.46857L63.4787 31.7107L83.1927 65.8519H66.2866L55.0315 46.3493L46.5902 31.7283L26.8879 65.8519L19.3453 78.9045L10.9099 93.5256L2.46857 78.9045Z" fill="#F8BFBF" stroke="#1E293B" stroke-width="3" stroke-linecap="round" stroke-linejoin="round"/>
<path d="M83.1927 65.8519L63.4787 31.7107L46.5961 2.46857H46.6019H63.4846L71.9259 17.0837L100.081 65.8519L107.618 78.9045H36.2339L43.7705 65.8519H83.1927Z" fill="#F8EAC7" stroke="#1E293B" stroke-width="3" stroke-linecap="round" stroke-linejoin="round"/>
<path d="M43.7705 65.8519L55.0315 46.3493L66.2866 65.8519H43.7705Z" stroke="#1E293B" stroke-width="3" stroke-linecap="round" stroke-linejoin="round"/>
</svg>
