<svg width="109" height="96" viewBox="0 0 109 96" fill="none" xmlns="http://www.w3.org/2000/svg">
<path d="M74.9858 48.2269L57.2248 30.4659L39.4638 48.2269L57.2248 65.9879L74.9858 48.2269Z" fill="#F8EAC7" stroke="#1E293B" stroke-width="3" stroke-linecap="round" stroke-linejoin="round"/>
<path d="M57.2189 30.4679V17.245" stroke="#1E293B" stroke-width="3" stroke-linecap="round" stroke-linejoin="round"/>
<path d="M75.0054 48.2544H95.9005C97.9458 48.2544 99.6095 49.913 99.6095 51.9633V65.7713" stroke="#1E293B" stroke-width="3" stroke-linecap="round" stroke-linejoin="round"/>
<path d="M41.6455 87.165H32.5334M20.2314 87.165H18.9748C16.6548 87.165 14.7673 85.2774 14.7673 82.9574V81.7211M14.7622 69.414V60.302" stroke="#1E293B" stroke-width="3" stroke-linecap="round" stroke-linejoin="round"/>
<path d="M39.3662 9.5473H18.4711C16.4258 9.5473 14.7622 11.2059 14.7622 13.2562V38.3945" stroke="#1E293B" stroke-width="3" stroke-linecap="round" stroke-linejoin="round"/>
<path d="M57.2189 78.9891V65.7662" stroke="#1E293B" stroke-width="3" stroke-linecap="round" stroke-linejoin="round"/>
<path d="M75.6872 2.27191H38.7557C34.6898 2.27191 31.3938 5.5668 31.3938 9.63124C31.3938 13.6957 34.6898 16.9906 38.7557 16.9906H75.6872C79.753 16.9906 83.049 13.6957 83.049 9.63124C83.049 5.5668 79.753 2.27191 75.6872 2.27191Z" fill="#DEC6FF" stroke="#1E293B" stroke-width="3" stroke-linecap="round" stroke-linejoin="round"/>
<path d="M66.0765 79.0043H48.4986C44.4327 79.0043 41.1367 82.2992 41.1367 86.3637C41.1367 90.4281 44.4327 93.723 48.4986 93.723H66.0765C70.1424 93.723 73.4384 90.4281 73.4384 86.3637C73.4384 82.2992 70.1424 79.0043 66.0765 79.0043Z" fill="white" stroke="#1E293B" stroke-width="3" stroke-linecap="round" stroke-linejoin="round"/>
<path d="M92.1763 73.1459C92.1763 77.2103 95.4712 80.5052 99.5357 80.5052C103.6 80.5052 106.895 77.2103 106.895 73.1459C106.895 69.0814 103.6 65.7865 99.5357 65.7865C95.4712 65.7865 92.1763 69.0814 92.1763 73.1459Z" fill="#F8BFBF" stroke="#1E293B" stroke-width="3" stroke-linecap="round" stroke-linejoin="round"/>
<path d="M14.836 60.7854C21.7721 60.7854 27.3949 55.1625 27.3949 48.2264C27.3949 41.2903 21.7721 35.6675 14.836 35.6675C7.89985 35.6675 2.27701 41.2903 2.27701 48.2264C2.27701 55.1625 7.89985 60.7854 14.836 60.7854Z" fill="#BFE3F8" stroke="#1E293B" stroke-width="3" stroke-linecap="round" stroke-linejoin="round"/>
</svg>
