<svg width="99" height="96" viewBox="0 0 99 96" fill="none" xmlns="http://www.w3.org/2000/svg">
<path d="M49.7473 90.3086C35.7744 96.977 18.5796 93.0978 8.95087 80.2257C-2.02435 65.5636 0.967919 44.7726 15.6354 33.7974C16.0682 33.4715 16.501 33.1616 16.9445 32.8677C16.7682 35.021 16.8109 37.2172 17.0727 39.44C18.2483 49.2771 23.613 57.5913 31.1792 62.8117C31.9967 74.3053 38.7934 84.9813 49.7473 90.3086Z" stroke="#1E293B" stroke-width="3" stroke-linecap="round" stroke-linejoin="round"/>
<path d="M50.0411 30.5326C42.9986 33.8722 37.0942 39.7018 33.7813 47.4282C31.628 52.451 30.8158 57.7142 31.1791 62.8117C23.613 57.5966 18.2483 49.277 17.0727 39.4399C16.8056 37.2118 16.7682 35.0157 16.9445 32.8676C27.0327 26.0335 39.6804 25.4938 50.0411 30.5326Z" fill="#F8BFBF" stroke="#1E293B" stroke-width="3" stroke-linecap="round" stroke-linejoin="round"/>
<path d="M83.095 33.1669C81.3157 31.9432 79.3975 30.8799 77.3349 29.9983C68.2245 26.0976 58.3394 26.5892 50.0412 30.5326C39.6804 25.4938 27.0327 26.0389 16.9445 32.8676C18.1521 17.4307 30.1052 4.47849 46.0711 2.57091C64.2598 0.396176 80.7653 13.3858 82.9401 31.5692C83.0042 32.1035 83.0576 32.6379 83.0897 33.1669H83.095Z" stroke="#1E293B" stroke-width="3" stroke-linecap="round" stroke-linejoin="round"/>
<path d="M68.5665 63.0041C64.3346 65.8681 59.3706 67.7917 53.9418 68.4383C45.5901 69.4375 37.5912 67.236 31.1791 62.8064C30.8158 57.7035 31.628 52.4457 33.7814 47.4229C37.0942 39.6965 42.9933 33.8669 50.0411 30.5273C54.6417 32.7661 58.7882 36.1057 62.0583 40.4766C67.1024 47.2092 69.197 55.2295 68.5665 63.0041Z" fill="white" stroke="#1E293B" stroke-width="3" stroke-linecap="round" stroke-linejoin="round"/>
<path d="M68.5665 63.0041C69.197 55.2295 67.1024 47.2145 62.0583 40.4766C58.7828 36.1057 54.6418 32.7661 50.0411 30.5273C58.3393 26.5839 68.2245 26.0976 77.3349 29.9929C79.3974 30.8746 81.3157 31.9432 83.095 33.1615C83.966 45.3176 78.115 56.544 68.5665 62.9987V63.0041Z" fill="#F8EAC7" stroke="#1E293B" stroke-width="3" stroke-linecap="round" stroke-linejoin="round"/>
<path d="M68.5665 63.0041C67.8291 72.1625 63.3086 80.9684 55.3791 86.9048C53.5838 88.246 51.6976 89.3841 49.7472 90.3085C38.7881 84.9812 31.9967 74.3052 31.1791 62.8117C37.5965 67.236 45.5901 69.4374 53.9418 68.4436C59.3652 67.7917 64.3346 65.8734 68.5665 63.0094V63.0041Z" fill="#BFE3F8" stroke="#1E293B" stroke-width="3" stroke-linecap="round" stroke-linejoin="round"/>
<path d="M94.7595 73.5465C87.5514 90.3833 68.0482 98.19 51.2113 90.9764C50.7144 90.7627 50.2282 90.5383 49.7473 90.3085C51.6976 89.3841 53.5838 88.246 55.3791 86.9048C63.314 80.9684 67.8291 72.1626 68.5665 63.0041C78.115 56.5493 83.966 45.323 83.095 33.1669C95.8549 41.9406 101.091 58.7722 94.7595 73.5465Z" stroke="#1E293B" stroke-width="3" stroke-linecap="round" stroke-linejoin="round"/>
</svg>
