<svg width="105" height="96" viewBox="0 0 105 96" fill="none" xmlns="http://www.w3.org/2000/svg">
<path d="M42.219 32.7281C42.219 15.98 55.7959 2.40314 72.5439 2.40314C89.292 2.40314 102.869 15.98 102.869 32.7281C102.869 49.4761 89.292 63.053 72.5439 63.053C67.0267 63.053 61.8519 61.5769 57.3955 59.0007L72.4373 32.947H42.2246C42.2246 32.874 42.2246 32.801 42.2246 32.7281H42.219Z" fill="#F8EAC7" stroke="#1E293B" stroke-width="3" stroke-linecap="round" stroke-linejoin="round"/>
<path d="M42.2246 32.947H72.4373L57.3955 59.0007C48.3816 53.7978 42.2976 44.0824 42.2246 32.947Z" fill="#F8BFBF" stroke="#1E293B" stroke-width="3" stroke-linecap="round" stroke-linejoin="round"/>
<path d="M2.40314 32.947H42.2246C42.2976 44.0824 48.3816 53.7922 57.3955 59.0007L37.4202 93.5968L2.40314 32.947Z" fill="#BFE3F8" stroke="#1E293B" stroke-width="3" stroke-linecap="round" stroke-linejoin="round"/>
</svg>
